<svg display="none" xmlns="http://www.w3.org/2000/svg">
 <symbol id="sm-icon-economy" viewBox="0 0 184.25 184.25" >
 <path d="M137.875 95.094h-7.61l-.214-2.012c-.595-5.583-2.31-10.844-5.099-15.637l-.718-1.233 7.051-10.236a23.954 23.954 0 0 0-1.354-.039c-2.579 0-6.354.444-9.682 2.564l-1.45.924-1.271-1.156c-6.807-6.183-15.553-9.588-24.626-9.588-20.612 0-37.382 17.354-37.382 38.684 0 10.198 3.808 19.825 10.723 27.106l1.077 1.135-.917 1.873-3.604 8.23 9.568 4.206 3.525-8.023 2.072.936a36.044 36.044 0 0 0 14.938 3.223c5.312 0 10.456-1.14 15.293-3.388l2.084-.969 3.229 7.351 9.566-4.205-4.213-9.616 1.004-1.081c3.547-3.822 5.846-7.269 7.452-11.177l.573-1.395h9.7a5.503 5.503 0 0 0 5.497-5.497v-5.483c.001-3.031-2.338-5.497-5.212-5.497zm-30.952-20.246a28.691 28.691 0 0 0-13.781-3.539c-4.337 0-8.511.953-12.406 2.833l-2.607-5.404a34.277 34.277 0 0 1 15.014-3.429c5.812 0 11.576 1.48 16.672 4.281l-2.892 5.258zm10.479 21.115a3.536 3.536 0 0 1 0-7.07 3.535 3.535 0 0 1 0 7.07z"/>
 <path d="M92.18.388C41.692.388.763 41.317.763 91.805c0 50.49 40.929 91.418 91.417 91.418 50.49 0 91.418-40.928 91.418-91.418C183.598 41.316 142.67.388 92.18.388zm38.975 39.779l3.182 3.182-11.244 11.244-3.182-3.182 11.244-11.244zm-42.133-13.08h4.5v15.901h-4.5V27.087zM53.49 40.167l11.244 11.244-3.182 3.182-11.243-11.244 3.181-3.182zm94.098 65.906c0 5.513-4.484 9.997-9.997 9.997h-6.718c-1.603 3.483-3.731 6.664-6.713 10.033l4.84 11.046-17.801 7.826-3.218-7.322a40.416 40.416 0 0 1-15.08 2.896c-5.062 0-9.995-.922-14.694-2.742l-3.533 8.037-17.802-7.825 5.073-11.577a43.364 43.364 0 0 1-9.796-19.068 11.682 11.682 0 0 1-6.408 1.926c-6.462 0-11.719-5.258-11.719-11.72 0-5.544 3.937-10.372 9.361-11.481l.901 4.408c-3.339.684-5.762 3.658-5.762 7.073 0 3.981 3.238 7.22 7.219 7.22a7.193 7.193 0 0 0 5.547-2.606 45.244 45.244 0 0 1-.269-4.829c0-23.812 18.788-43.184 41.882-43.184 9.65 0 18.966 3.424 26.411 9.674 3.074-1.586 6.709-2.418 10.618-2.418 3.338 0 5.736.605 5.837.631l3.122.802-9.346 13.567a43.47 43.47 0 0 1 4.722 14.157h3.609c5.355 0 9.713 4.484 9.713 9.996v5.483z"/>
 </symbol>
</svg>