<svg display="none" xmlns="http://www.w3.org/2000/svg">
 <symbol id="icon-sm-handshake" viewBox="0 0 245.66667 245.66667" >
 <g transform="matrix(.13333 0 0 -.13333 0 245.667)" fill="#231f20">
 <path d="M1124.07 520.879l.68 1.051-47.9 28.25c-2.04-8.559-5.12-16.918-9.43-24.86l-40.94-83.082 34.87-19.648c13.12-8.41 28.74-11.168 43.93-7.809 15.22 3.348 28.21 12.438 36.59 25.578 8.38 13.141 11.16 28.731 7.8 43.942-3.36 15.199-12.45 28.199-25.6 36.578M1035.17 589.738c-4.43 14.934-14.41 27.231-28.11 34.653-13.669 7.449-29.455 9.097-44.384 4.66-13.367-3.969-24.446-12.582-31.992-24.129-.75-1.563-1.426-3.16-2.266-4.711l-.625.348-60.789-121.149-37.539 18.852 61.297 122.117c1.093 2.012 2.312 3.902 3.515 5.801 4.969 12.218 5.696 25.64 1.883 38.461-4.422 14.929-14.402 27.238-28.094 34.66-13.711 7.437-29.461 9.097-44.394 4.66-14.934-4.43-27.254-14.422-34.688-28.121l-21.699-42.731c-.945-2.058-1.855-4.109-2.937-6.109l-.129.07-37.41-73.672-37.446 19.024 40.657 80.039c5.156 12.34 5.918 25.969 2.07 38.969-4.434 14.929-14.402 27.242-28.098 34.652-13.711 7.449-29.461 9.09-44.39 4.668-14.934-4.43-27.258-14.418-34.7-28.129l-35.73-64.543c-1.477-3.719-3.109-7.406-5.051-10.976l-.793.429-3.863-6.992-36.738 20.332 8.23 14.867c4.043 11.492 4.434 23.891.906 35.782-4.429 14.929-14.414 27.23-28.113 34.652-29.687 16.129-71.941 6.758-88.691-19.66-33.184-52.282 1.961-89.082 9.121-95.75 27.05-15.832 348.066-203.742 419.726-246.903 14.114-8.5 27.578-10.828 41.114-7.148 34.074 9.277 58.41 52.578 58.64 53.008l66.47 134.91c7.81 14.422 9.47 30.18 5.04 45.109"/>
 <path d="M1487.56 781.43c9.37 12.449 13.32 27.789 11.14 43.199-2.15 15.133-9.94 28.535-21.99 37.883L990.383 1160.96l-39.856-31.41-46.98-146.823c-5.141-29.055-21.098-54.497-45.07-71.782-24.434-17.617-54.266-24.668-83.946-19.812-29.687 4.773-55.761 20.859-73.379 45.285-17.617 24.422-24.66 54.246-19.836 83.972l31.567 234 51.875 39c-70.637 21.24-109.758-11.85-110.156-12.2l-2.668-1.98-171.707-107.32-159.055 41.02c-33.574-44.35-160.508-233.144-104.133-486.371l162.617-52.98c1.699 17.312 7.563 35.961 19.934 55.453 28.75 45.308 94.734 60.898 144.187 34.09 18.586-10.071 33.118-25.442 42.2-44.09l2.097 3.789c12.696 23.41 33.891 40.59 59.582 48.219 25.696 7.609 52.813 4.769 76.367-8.008 19.317-10.473 34.239-26.68 43.223-46.332 12.09 12.929 27.227 22.429 44.473 27.55 25.703 7.629 52.824 4.77 76.367-8.011 23.555-12.75 40.723-33.938 48.352-59.641 1.14-3.84 1.96-7.707 2.632-11.609 3.782 1.652 7.641 3.152 11.653 4.351 25.715 7.61 52.817 4.782 76.367-8 23.55-12.769 40.72-33.949 48.35-59.64.22-.739.34-1.5.55-2.258l136.81-80.82c12.44-9.352 27.79-13.293 43.22-11.133 15.41 2.191 29.06 10.242 38.4 22.711 9.39 12.461 13.33 27.8 11.15 43.211-2.14 15.089-9.9 28.48-21.89 37.82l-230.35 137.391 21.52 36.078 233.25-139.27c5.73-4.308 10.86-9.18 15.46-14.449l.34.437c12.46-9.367 27.86-13.277 43.21-11.128 15.42 2.191 29.05 10.261 38.4 22.71 9.26 12.29 13.25 28.629 10.96 44.848-2.27 16.223-10.61 30.82-22.88 40.043l.15.199c-4.14 2.211-8.19 4.641-12.05 7.469l-234.25 137.754 21.29 36.211 237.2-139.664c12.44-9.36 27.79-13.281 43.21-11.129 15.43 2.187 29.07 10.25 38.42 22.719"/>
 <path d="M1673.71 704.129l-222.69-65.238c-3.14-7.512-7.06-14.672-11.94-21.153-16.07-21.406-39.54-35.289-66.06-39.047a101.83 101.83 0 0 0-14.31-1.011c-3.86 0-7.67.3-11.47.742 3.49-26.242-3.3-52.313-19.24-73.481-16.09-21.41-39.56-35.293-66.1-39.05-4.77-.68-9.54-1.02-14.27-1.02-19.62 0-38.66 5.82-55.15 16.789 2.28-22.359-2.93-44.68-15.21-63.898-14.41-22.582-36.75-38.223-62.93-44a100.97 100.97 0 0 0-21.8-2.391c-18.72 0-37.08 5.27-53.28 15.5l-31.36 17.641-6.94-14.102c-1.702-3.148-33.167-60.148-84.913-74.23-7.871-2.141-15.742-3.2-23.586-3.2-16.926 0-33.738 4.981-50.215 14.899-74.238 44.711-417.605 245.66-421.062 247.68l-2.954 2.082c-11.621 9.82-25.476 27.359-33.218 50L181.633 693.91l-2.766 11.379C101.992 1022.14 289.395 1241.29 297.41 1250.47l8.52 9.74 167.324-43.14 155.332 97.08c9.937 7.83 64.051 45.75 150.445 18.8l2.961-1.17 20.52-10.01 102.261 76.88c3.832 1.79 95.477 43.24 219.917-33.62 96.35-59.51 180.76-116.14 206.46-133.54l226.79 60.48 8.49-11.61c157.61-215.8 111.28-548.821 109.22-562.891zM914.16 1842.5C409.277 1842.5 0 1433.21 0 928.328 0 423.43 409.277 14.148 914.16 14.148c504.9 0 914.18 409.282 914.18 914.18 0 504.882-409.28 914.172-914.18 914.172"/>
 <path d="M1323.39 1185.96l-7.95 5.43c-.98.67-98.39 67.22-212.82 137.9-96.42 59.56-166.202 36.77-178.362 32.02l-172.102-129.89-29.297-217.2c-3.113-19.208 1.313-37.919 12.356-53.236 11.047-15.308 27.39-25.398 46.023-28.394 18.684-3.059 37.356 1.375 52.68 12.422 15.312 11.051 25.418 27.398 28.437 46.051l.731 3.039 51.348 160.488 72.961 57.48 513.825-315.429c21.43-16.106 35.29-39.578 39.06-66.11 3.76-26.543-3.03-52.929-19.15-74.34-16.07-21.41-39.55-35.293-66.09-39.062-1.03-.149-2.05-.18-3.09-.277 2.85-7.43 4.99-15.172 6.12-23.18.41-2.902.63-5.813.8-8.711l176.79 51.801c6.63 62.07 26.46 328.358-94.93 507.158l-217.34-57.96"/>
 </g>
 </symbol>
 <symbol id="icon-sm-tools" viewBox="0 0 245.66667 245.66667" >
 <g transform="matrix(.13333 0 0 -.13333 0 245.667)" fill="#231f20">
 <path d="M491.684 552.512l-10.711-39.992 29.281-29.29 39.996 10.719 10.723 39.992-29.293 29.289-39.996-10.718"/>
 <path d="M586.988 457.211l-90.179-24.172-66.032 66.043 24.168 90.168 90.184 24.18 66.039-66.059zm672.642 615.419l-189.28 189.27 196.88 196.89c-14.9 2.81-30.06 4.23-45.36 4.23-65.03 0-126.17-25.33-172.15-71.32-76.236-76.22-93.47-191.31-42.9-286.4l7.82-14.69-435.265-435.282-13.164 4.352c-14.617 4.832-29.859 7.269-45.309 7.269-38.382 0-74.461-14.937-101.586-42.07-56.046-56.039-56.046-147.231 0-203.289 27.149-27.149 63.25-42.11 101.657-42.11 38.39 0 74.492 14.961 101.632 42.11 38.645 38.621 51.973 94.898 34.805 146.89l-4.347 13.161 434.267 434.279 14.89-8.41c36.34-20.537 77.76-31.389 119.75-31.397h.02c64.98 0 126.09 25.317 172.04 71.267 59.34 59.36 83.34 144.64 65.46 225.11l-199.86-199.86"/>
 <path d="M1425.85 1015.57c-54.45-54.457-126.86-84.457-203.86-84.457h-.01c-43.96.008-87.39 10.059-126.63 29.192L704.078 569.02c16.141-64.301-2.265-131.879-49.648-179.25-35.641-35.649-83.039-55.29-133.457-55.29-50.422 0-97.828 19.641-133.477 55.301-73.59 73.59-73.59 193.34 0 266.918 35.617 35.633 83 55.25 133.406 55.25 15.52 0 30.879-1.879 45.84-5.609l392.875 392.89c-50.519 109.57-28.054 237.98 58.283 324.29 54.48 54.49 126.91 84.5 203.97 84.5 32.92 0 65.29-5.54 96.23-16.46l33.66-11.88-217.78-217.78 125.65-125.64 219.1 219.1 12.41-32.35c40.78-106.3 15.16-226.99-65.29-307.44zm-504.604 821.11c-504.883 0-914.172-409.29-914.172-914.168 0-504.903 409.289-914.184 914.172-914.184 504.904 0 914.184 409.281 914.184 914.184 0 504.878-409.28 914.168-914.184 914.168"/>
 </g>
 </symbol>
 <symbol id="icon-sm-money" viewBox="0 0 245.66667 245.66667" >
 <g transform="matrix(.13333 0 0 -.13333 0 245.667)" fill="#231f20">
 <path d="M1150.28 1241.28l13.34-42.97c-17.21-5.35-32.76-15.29-44.97-28.75l-33.34 30.21c17.61 19.43 40.07 33.78 64.97 41.51zm4.37-189.55c55.79 0 101.18 45.39 101.18 101.19 0 55.79-45.39 101.18-101.18 101.18-50.92 0-94.09-38.03-100.42-88.46-.51-4.15-.77-8.44-.77-12.72 0-55.8 45.39-101.19 101.19-101.19M1023.82 1374.82c55.8 0 101.19 45.39 101.19 101.2 0 55.8-45.39 101.19-101.19 101.19s-101.191-45.39-101.191-101.19c0-55.81 45.391-101.2 101.191-101.2M1004.74 946.594c44.92 0 83.26 29.453 96.31 70.446-52.92 20.96-90.71 71.88-92.39 131.77-1.31.05-2.62.17-3.92.17-55.802 0-101.205-45.39-101.205-101.2 0-55.8 45.403-101.186 101.205-101.186M1442.29 757.75c-12.6 0-24.83-4.449-34.44-12.531l-3.3-2.297-248.52-142.352-.02.039c-14.11-7.789-30.3-12.25-47.51-12.25H911.105v45H1108.5c29.55 0 53.59 24.032 53.59 53.582 0 29.547-24.04 53.598-53.59 53.598-4.65 0-9.26-.598-13.71-1.758l-4.23-.691-464.806-30.668c16.348-27.641 25.906-59.742 25.906-94.121 0-31.473-7.93-61.102-21.805-87.102l415.295-105.461 205.08 58.344 232.97 190.496a53.449 53.449 0 0 1 12.67 34.602c0 29.539-24.03 53.57-53.58 53.57"/>
 <path d="M1515.63 638.301l-2.5-2.371-241.63-197.59-225.69-64.199-444.177 112.8c-33.918-36.371-82.09-59.293-135.637-59.293H273.445v45h192.551c77.559 0 140.664 63.09 140.664 140.653 0 77.558-63.105 140.66-140.664 140.66H273.445v45h192.551c48.34 0 92.285-18.731 125.359-49.121l-.027.398 494.252 32.614a98.507 98.507 0 0 0 22.92 2.687c54.36 0 98.59-44.23 98.59-98.598 0-1.832-.18-3.621-.27-5.429l173.73 99.519c17.44 14.028 39.27 21.719 61.74 21.719 54.35 0 98.58-44.211 98.58-98.57 0-24.379-8.97-47.77-25.24-65.879zm-510.89 555.679c3.18 0 6.38-.21 9.58-.42 17.81 61.5 74.53 105.54 140.33 105.54 80.6 0 146.18-65.58 146.18-146.18 0-80.61-65.58-146.19-146.18-146.19-3.23 0-6.4.27-9.58.49-17.66-61.224-74.04-105.626-140.33-105.626-80.619 0-146.205 65.586-146.205 146.186 0 80.61 65.586 146.2 146.205 146.2zm19.08 428.23c80.6 0 146.19-65.59 146.19-146.19 0-80.61-65.59-146.2-146.19-146.2-80.605 0-146.191 65.59-146.191 146.2 0 80.6 65.586 146.19 146.191 146.19zM921.238 1834.7C416.355 1834.7 7.07 1425.41 7.07 920.527 7.07 415.621 416.355 6.352 921.238 6.352c504.902 0 914.182 409.269 914.182 914.175 0 504.883-409.28 914.173-914.182 914.173"/>
 </g>
 </symbol>
 <symbol id="icon-sm-connection" viewBox="0 0 245.66667 245.66667" >
 <g transform="matrix(.13333 0 0 -.13333 0 245.667)" fill="#231f20">
 <path d="M681.887 726.09c-6.301 18.129-28.711 29.07-49.875 37.371-22.949 9-39.336 28.48-43.821 52.117-4.644 24.481 4.004 49.82 23.157 67.969 18.144 19.148 43.488 27.781 67.961 23.164 23.64-4.484 43.125-20.871 52.136-43.84 10.235-26.101 23.41-42.07 39.141-47.473 5.039.043 19.309 5.711 23.406 9.383l9.184 8.278 86.394 86.004-47.265 48.25c-12.61 12.636-25.008 26.476-37.012 39.857l-1.277 1.42c-10.625 11.86-26.067 44.19-18.95 66.43 10.332 32.25 36.196 59.22 69.164 72.16 8.719 3.42 14.422 10.03 16.043 18.61 1.817 9.58-1.894 19.49-10.175 27.19l-1.172 1.17c-7.696 8.27-17.649 11.96-27.168 10.17-8.594-1.62-15.203-7.33-18.621-16.05-1.496-3.8-2.969-8.18-4.543-12.86-8.535-25.21-21.426-63.33-55.891-74.36-23.238-7.48-55.223 8.91-66.426 18.91l-3.132 2.81c-12.481 11.19-25.391 22.75-37.649 35l-74.141 78.29L254.16 918.867l317.586-317.586L672.52 702.699c3.652 4.082 9.472 17.922 9.367 23.391"/>
 <path d="M1142.4 653.719l-3.35 3c-4.03 3.601-17.65 9.351-23.22 9.351-.07 0-.13 0-.19-.011-23.81-7.797-42.93-22.457-48.81-37.469-9.02-22.969-28.5-39.34-52.13-43.82-24.473-4.668-49.817 4.011-67.97 23.14-19.14 18.141-27.792 43.5-23.156 67.981 4.485 23.629 20.867 43.109 43.821 52.129 15.144 5.941 41.425 19 48.715 40.16.1 5.461-5.72 19.32-9.38 23.422l-1.06 1.168c-11.654 13.011-23.717 26.468-35.697 38.468l-52.993 51.614-93.003-91.633c-11.145-9.981-43.125-26.387-66.379-18.918-29.578 9.488-52.469 34.429-68.047 74.144-3.418 8.723-10.039 14.414-18.621 16.043-9.563 1.809-19.485-1.89-27.18-10.175l-1.172-1.168c-8.281-7.7-11.992-17.606-10.176-27.184 1.629-8.582 7.325-15.191 16.043-18.609 18.938-7.43 63.254-24.832 76.535-66.243 7.442-23.289-8.933-55.25-18.933-66.418l-9.438-10.429-92.988-92.864L921.25 251.781l313.11 313.098-56.23 55.641c-11.4 11.402-23.22 21.992-35.73 33.199M713.176 1156.29l3.125-2.79c4.031-3.62 17.664-9.37 23.23-9.37h.11c12.468 4.75 20.457 28.37 26.328 45.71 1.812 5.39 3.543 10.44 5.269 14.86 9.016 22.97 28.496 39.35 52.129 43.84 24.477 4.6 49.824-4.01 67.961-23.16 19.152-18.15 27.805-43.49 23.164-67.97-4.48-23.63-20.871-43.11-43.816-52.13-15.676-6.15-34.973-20.71-42.512-43.24-.129-5.47 5.703-19.33 9.356-23.4l1.289-1.43c11.589-12.94 23.593-26.32 35.5-38.265l47.039-48.027 81.692 82.182 8.52 7.69c11.88 10.65 44.27 26.07 66.44 18.92 43.27-13.84 63.73-55.56 70.52-72.855 4.61-11.765 13.65-15.097 18.63-16.042 9.55-1.829 19.47 1.89 27.16 10.171l1.17 1.172c8.28 7.699 11.99 17.602 10.18 27.164-1.63 8.6-7.33 15.22-16.05 18.64-34.26 13.42-60.72 40.2-70.79 71.64-7.12 22.21 8.3 54.56 18.93 66.42l9.41 10.42 91.74 91.87-317.65 317.65-318.066-318.07 74.55-78.74c10.957-10.93 23.399-22.08 35.442-32.86"/>
 <path d="M1270.76 1236.46l-99.46-100.44c-3.68-4.09-9.51-17.96-9.39-23.42 7.26-21.6 27.48-36.22 44.12-42.74 22.97-9.02 39.36-28.51 43.84-52.16 4.64-24.47-4.01-49.809-23.16-67.942-18.14-19.133-43.4-27.844-67.94-23.156-23.64 4.472-43.14 20.859-52.15 43.82-3.43 8.738-16.5 37.708-41.67 46.208h-.16c-5.56 0-19.16-5.74-23.21-9.36l-9.13-8.239-83.661-84.351 52.801-51.418c13.06-13.086 25.53-26.992 37.59-40.453l1.08-1.207c10.04-11.243 26.41-43.243 18.93-66.461-11.97-37.313-47.59-58.129-75.362-69.02-8.711-3.41-14.402-10.031-16.035-18.621-1.816-9.578 1.887-19.488 10.176-27.191l1.164-1.161c7.683-8.277 17.605-11.988 27.177-10.179 8.59 1.64 15.2 7.332 18.62 16.051 11.01 28.101 40.06 52.082 77.73 64.14 23.25 7.469 55.24-8.93 66.42-18.93l3.34-2.992c12.41-11.129 25.26-22.617 37.44-34.816l56.32-55.711 322.17 322.156-317.59 317.593"/>
 <path d="M921.25 188.141L190.527 918.867 921.25 1649.59l730.73-730.723zm1.523 1646.559c-504.882 0-914.168-409.29-914.168-914.173 0-504.906 409.286-914.175 914.168-914.175 504.907 0 914.177 409.269 914.177 914.175 0 504.883-409.27 914.173-914.177 914.173"/>
 </g>
 </symbol>
 <symbol id="icon-sm-quality" viewBox="0 0 245.66667 245.66667" >
 <g transform="matrix(.13333 0 0 -.13333 0 245.667)" fill="#231f20">
 <path d="M326.199 948.945c-3.953-34.082-.176-106.996 91.977-149.246.262 3.723.387 7.922.398 12.332-6.386 22.36-11.484 45.242-14.988 68.653-12.91 26.336-36.137 51.855-77.387 68.261M618.34 502.059c-28.211 0-56.043-9.598-82.949-28.559 16.504-13.578 47.199-32.98 87.617-32.98 28.152 0 57.187 9.3 86.535 27.64a547.254 547.254 0 0 0-50.07 27.199c-12.52 4.032-26.348 6.7-41.133 6.7M530.977 952.313c-29.5-17.528-85.164-64.747-62.872-163.653 31.36 20.629 88.497 72.231 62.872 163.653M603.438 768.75c-21.661-22.23-56.368-73.66-18.583-151.238 22.594 25.289 57.579 80.449 18.583 151.238M395.535 688.852c-5.762 0-11.707-.301-17.781-.891 11.594-31.07 46.125-91.231 139.641-91.231 3.347 0 6.753.079 10.222.231-13.762 32.328-50.215 91.891-132.082 91.891M1316.88 1157.89c3.75-95.42 74.09-126.63 110.27-136.39-9.25 101.01-76.77 128.8-110.27 136.39M1406.74 1220.91c45.35 91.55 2.06 150.26-22.64 174.04-46.82-83.36-3.11-146.8 22.64-174.04M552.246 1157.9c-33.457-7.58-100.969-35.33-110.254-136.29 36.192 9.95 106.453 41.43 110.254 136.29M1338.19 952.449c-25.95-92.039 31.41-143.461 62.83-163.91 22.61 99.652-33.24 146.59-62.83 163.91M485.098 1394.82c-24.563-23.95-67.598-82.89-22.743-173.8 25.653 27.4 69.09 90.96 22.743 173.8M403.691 1042.27a553.976 553.976 0 0 0 6.258 34.58c3 38.38-6.812 88.16-62.051 127.2-11.843-32.19-25.281-103.93 54.36-166.65.476 1.52.957 3.21 1.433 4.87M708.547 639.301c-9.035-29.699-16.25-91.321 52.93-142.903 8.464 32.852 14.214 97.922-52.93 142.903M1384.54 637.73c-1.95-2.628-3.95-5.23-5.96-7.839-8.44-11.86-14.52-23.559-18.58-32.942 3.41-.14 6.77-.219 10.07-.219 93.47 0 128.02 60.129 139.63 91.231-6.08.59-12.02.891-17.79.891-52.33 0-86.15-24.84-107.37-51.122M1478.21 799.641c92.95 42.449 96.38 115.332 92.21 149.363-88.93-35.188-95.01-111.984-92.21-149.363M1284.3 617.488c38.19 78.141 3.26 129.352-18.54 151.391-39.11-70.859-4.07-126.09 18.54-151.391"/>
 <path d="M1469.78 757.398l-18.92-6.777-.76 3.188c-5.47-13.207-11.48-26.137-17.93-38.821 17.38 6.141 37.17 9.852 59.74 9.852 14.11 0 28.96-1.461 44.14-4.34l17.45-3.32-3.08-17.481c-.24-1.39-26.23-138.969-180.35-138.969-11.88 0-24.35.829-37.09 2.481l-13.04 1.687c-15.03-14.226-30.78-27.679-47.34-40.148 34.81-4.73 68.48-20.648 100.33-47.852l13.51-11.527-11.35-13.66c-2-2.402-49.82-58.859-128.95-58.859h-.01c-42.33.007-85.25 16.238-127.56 48.25l-2.32 1.757a546.114 546.114 0 0 0-43.8-12.519c44.77-19.731 89.14-59.641 111.82-138.149l4.92-17.05-16.98-5.172c-.88-.258-21.67-6.469-51.39-6.469h-.01c-46.74 0-126.826 15.719-178.415 111.781-52.266-96.082-132.832-111.84-179.946-111.84-30.094 0-51.16 6.289-52.039 6.547l-16.992 5.16 4.922 17.063c22.805 78.937 67.273 119.34 112.265 139.469-21.171 5.351-41.816 12-61.933 19.75-41.699-31.078-83.977-46.918-125.664-46.918-79.141 0-126.953 56.457-128.953 58.859l-11.352 13.66 13.508 11.528c33.105 28.281 68.176 44.48 104.453 48.461-11.016 8.929-21.633 18.3-31.914 28.039l-14.277-1.848c-12.743-1.652-25.215-2.481-37.078-2.481-154.141 0-180.122 137.571-180.364 138.969l-3.078 17.481 17.442 3.32c15.187 2.879 30.043 4.34 44.14 4.34 23.344 0 43.695-3.981 61.496-10.5-3.84 7.519-7.5 15.14-10.996 22.859l-.293-.129-.82 2.59c-1.973 4.41-3.953 8.828-5.813 13.301l-12.39 4.437c-177.473 63.641-131.906 218.997-131.426 220.563l5.234 16.961 17.039-4.988c34.747-10.188 60.754-25.278 80.325-42.793-.137 4.937-.379 9.851-.379 14.832 0 11.269.371 22.519 1.062 33.75-154.668 103.387-74.734 242.387-73.906 243.787l9.062 15.26 15.391-8.84c45.305-26.07 70.664-57.75 84.016-89.57 3.152 8.35 6.648 16.56 10.215 24.73l-1.039 1.72c-97.579 161.3 35.734 253.11 37.089 254.01l14.758 9.88 10.078-14.62c74.367-107.92 20.938-193.93-13.133-232.37l.743-.39c-6.887-13.11-12.969-26.61-18.672-40.27 44.793 34.88 95.269 37.59 96.179 37.63l17.747.7.945-17.73c8.176-153.74-118.145-189.552-153.899-196.584-.293-7.031-.64-14.05-.64-21.093 0-22.547 1.621-44.707 4.472-66.493 27.45 72.118 96.278 98.622 97.313 99l16.66 6.13 6.367-16.567c52.149-135.859-42.492-208.543-79.922-231.074 15.176-33.707 33.809-65.528 55.606-94.891-15.813 97.402 62.441 152.211 63.43 152.891l14.683 9.972 10.18-14.543c76.812-109.796 7.105-195.558-20.609-222.988 22.667-20.551 47.23-39.019 73.312-55.269 4.68-1.629 9.16-3.403 13.484-5.289-44.597 75-5.191 150.199-4.656 151.187l8.457 15.609 15.723-8.25c118.254-62.039 96.269-169.718 84.199-207.179 48.106-15.039 99.231-23.168 152.227-23.168 46.445 0 91.426 6.347 134.216 18.019-11.2 31.52-41.8 147.121 82.45 212.328l15.73 8.25 8.46-15.609c.58-1.059 46.3-88.141-16.38-168.398 7.73 3.968 16.16 7.679 25.27 10.847 29.56 16.641 57.29 36.153 82.85 58.133-9.23 7.598-120.12 103.25-30.2 231.777l10.17 14.543 14.69-9.972c1.1-.758 98.74-69.117 53.66-189.02 9.56 10.699 18.71 21.762 27.36 33.242.42.539.84 1.09 1.26 1.637 20.37 27.242 38 56.633 52.67 87.672l-1.61.711c-1.59.711-158.11 72.371-94.21 238.832l6.37 16.567 16.66-6.13c1.24-.457 100.66-38.628 108.03-148.679 8.72 37.344 13.48 76.203 13.48 116.172 0 6.164-.35 12.304-.57 18.449l-10.45 1.094c-1.73.172-172.7 20.104-163.26 198.134l.95 17.73 17.75-.7c1.14-.05 80.74-4.36 128.75-71.65a505.502 505.502 0 0 1-17.38 44.63l-10.68 8.18c-1.38 1.07-136.73 107.44-35.57 254.24l10.08 14.62 14.76-9.88c1.3-.87 124.92-86.1 46.85-236.5 6.91-14.26 13.23-28.76 18.86-43.55 13.39 31.67 38.74 63.2 83.86 89.16l15.39 8.84 9.06-15.26c.83-1.4 80.59-140.12-73.47-243.487a544.032 544.032 0 0 0 1.07-34.05c0-7.481-.27-14.895-.57-22.305 20.26 20.703 48.55 38.652 88.14 50.266l17.04 4.988 5.23-16.961c.48-1.566 46.05-156.922-131.42-220.563zM920.547 1835.42c-504.883 0-914.172-409.29-914.172-914.17 0-504.898 409.289-914.18 914.172-914.18 504.903 0 914.183 409.282 914.183 914.18 0 504.88-409.28 914.17-914.183 914.17"/>
 <path d="M1485.83 1038.14c.08-.26.17-.56.24-.82 79.72 62.73 66.31 134.5 54.45 166.74-53.26-37.57-64.51-84.89-62.65-122.51 3.21-14.35 5.91-28.82 7.96-43.41M739.094 300.949a181.145 181.145 0 0 1 23.355-1.519c50.766 0 117.883 20.461 158.672 114.281-5.242.418-11.285.719-17.918.719-56.648 0-129.375-20.258-164.109-113.481M964.668 411.762c40.202-92.153 106.212-112.262 156.142-112.274h.01c8.64 0 16.35.641 22.68 1.453-34.26 91.579-105.8 111.5-161.535 111.5-6.391 0-12.219-.281-17.297-.679M1160.58 639.309c-67.65-45.207-61.64-110.239-53.02-142.989 69.29 51.578 62.08 113.239 53.02 142.989M1209 483.52c-13.91-7.731-28.22-14.809-42.84-21.321a183.007 183.007 0 0 1-7.35-5.23c29.62-18.668 58.91-28.11 87.32-28.11 40.76 0 71.31 19.352 87.7 32.922-26.94 19-54.8 28.617-83.03 28.617-15.04 0-29.11-2.726-41.8-6.878"/>
 </g>
 </symbol>
 <symbol id="icon-sm-balance" viewBox="0 0 245.66667 245.66667" >
 <g transform="matrix(.13333 0 0 -.13333 0 245.667)" fill="#231f20">
 <path d="M367.832 869.375c2.734-84.266 72.141-151.977 157.07-151.977 84.922 0 154.317 67.711 157.051 151.977l-2.148 4.277H369.98l-2.148-4.277M1154.16 869.375c2.73-84.266 72.13-151.977 157.05-151.977 84.92 0 154.33 67.711 157.06 151.977l-2.15 4.277h-309.81l-2.15-4.277M392.629 918.652h264.527L524.902 1181.52z"/>
 <path d="M1513.36 874.551c0-111.461-90.68-202.153-202.15-202.153-111.45 0-202.14 90.692-202.14 202.153v5.344l186.48 370.625H940.559V436.84h324.391v-45H571.16v45h324.399v813.68H540.566l186.477-370.625v-5.344c0-111.461-90.688-202.153-202.141-202.153-111.472 0-202.16 90.692-202.16 202.153v5.344l202.16 401.745v13.88h370.657v200.45h45v-200.45h370.651v-13.88l202.15-401.745zM918.047 1838.63c-504.883 0-914.172-409.29-914.172-914.177 0-504.902 409.289-914.183 914.172-914.183 504.903 0 914.183 409.281 914.183 914.183 0 504.887-409.28 914.177-914.183 914.177"/>
 <path d="M1178.96 918.652h264.52l-132.27 262.868z"/>
 </g>
 </symbol>
 <symbol id="icon-sm-search" viewBox="0 0 245.66667 245.66667" >
 <g transform="matrix(.13333 0 0 -.13333 0 245.667)" fill="#231f20">
 <path d="M1192.74 1341.09c-39.24 5.15-78.44-1.65-113.36-19.64l-20.61 40c43.1 22.21 91.43 30.61 139.81 24.25zm184.41-105.28c0 60.14-23.42 116.67-65.94 159.2-42.53 42.52-99.06 65.94-159.19 65.94-60.14 0-116.67-23.42-159.188-65.94-42.519-42.53-65.937-99.06-65.937-159.2 0-60.13 23.418-116.66 65.937-159.18 42.518-42.52 99.048-65.94 159.188-65.94 60.13 0 116.66 23.42 159.19 65.94 42.52 42.52 65.94 99.05 65.94 159.18M406.367 611.18V450h685.853l78.18 81.52-76.41 79.66H406.367M611.793 1268.75h-193.57v-161.18h191.793l78.183 81.52-76.406 79.66"/>
 <path d="M1539.85 813.352c-13.78-13.782-31.89-20.661-49.99-20.672-18.1 0-36.2 6.89-49.98 20.672l-176.34 176.355c-34.59-15.691-72.41-24.016-111.52-24.016-72.16 0-139.99 28.098-191.004 79.119-51.028 51.01-79.121 118.84-79.121 191s28.093 139.99 79.121 191.01c51.014 51.03 118.844 79.13 191.004 79.13 72.15 0 139.98-28.1 191.01-79.13 51.02-51.02 79.12-118.85 79.12-191.01 0-40.17-8.73-78.97-25.25-114.29l175.58-175.59c13.32-13.313 20.65-31.067 20.65-49.985 0-18.925-7.34-36.668-20.66-49.988zM1111.42 405H361.367v251.18h751.823l119.55-124.66zM363.988 984.973h499.805l119.559-124.668-121.356-126.524H361.109zm9.235 328.777H630.98l119.571-124.66-121.348-126.52h-255.98zm544.824 524.88c-504.883 0-914.172-409.29-914.172-914.177 0-504.902 409.289-914.183 914.172-914.183 504.903 0 914.183 409.281 914.183 914.183 0 504.887-409.28 914.177-914.183 914.177"/>
 <path d="M1373.54 1081.24c-9.02-12.87-19.16-25.09-30.51-36.43-12.04-12.04-25.05-22.75-38.79-32.17l167.46-167.472c10.02-9.996 26.32-10.008 36.34.008l32.61 32.605c4.82 4.824 7.48 11.274 7.48 18.164 0 6.899-2.65 13.352-7.47 18.164l-167.12 167.131M844.605 939.973H408.473l-1.848-161.192h436.184L921 860.305l-76.395 79.668"/>
 </g>
 </symbol>
 <symbol id="icon-sm-economy" viewBox="0 0 245.66667 245.66667" >
 <g transform="matrix(.13333 0 0 -.13333 0 245.667)" fill="#231f20">
 <path d="M1475.88 781.77c0-55.129-44.84-99.969-99.97-99.969h-67.18c-16.02-34.84-37.31-66.641-67.13-100.34l48.4-110.449-178.01-78.274-32.18 73.231C1031.69 446.738 981.063 437 929.016 437c-50.625 0-99.953 9.219-146.946 27.422l-35.324-80.371-178.016 78.25 50.735 115.777c-48.371 54.641-81.738 120.043-97.973 190.684-18.765-12.301-40.867-19.262-64.082-19.262-64.617 0-117.183 52.578-117.183 117.199 0 55.434 39.363 103.723 93.601 114.817l9.024-44.094c-33.387-6.824-57.625-36.57-57.625-70.723 0-39.82 32.378-72.199 72.183-72.199 21.653 0 41.828 9.629 55.481 26.07-1.719 15.93-2.696 32.035-2.696 48.285 0 238.115 187.879 431.835 418.821 431.835 96.494 0 189.654-34.23 264.114-96.73 30.74 15.86 67.08 24.18 106.18 24.18 33.37 0 57.36-6.06 58.37-6.32l31.22-8.01-93.46-135.67c23.79-44.14 39.63-91.632 47.22-141.577h36.09c53.55 0 97.13-44.844 97.13-99.961zm-940.978 659.06l112.442-112.44-31.817-31.82-112.441 112.45zm355.325 130.8h45v-159.02h-45zm421.323-130.8l31.82-31.81-112.44-112.45-31.82 31.82zm-393.503 397.8c-504.883 0-914.172-409.29-914.172-914.177 0-504.902 409.289-914.183 914.172-914.183 504.903 0 914.183 409.281 914.183 914.183 0 504.887-409.28 914.177-914.183 914.177"/>
 <path d="M1174.02 882.871c-19.51 0-35.35 15.828-35.35 35.352 0 19.511 15.84 35.351 35.35 35.351 19.52 0 35.35-15.84 35.35-35.351 0-19.524-15.83-35.352-35.35-35.352zm-104.79 211.149c-42.11 23.15-89.765 35.39-137.812 35.39-43.371 0-85.117-9.53-124.063-28.32l-26.078 54.04c47.153 22.75 97.668 34.28 150.141 34.28 58.113 0 115.772-14.8 166.712-42.81zm309.52-202.457h-76.1l-2.14 20.117c-5.95 55.824-23.1 108.44-50.99 156.37l-7.18 12.33 70.51 102.37c-4.24.24-8.78.39-13.54.39-25.8 0-63.54-4.45-96.82-25.65l-14.49-9.23-12.73 11.55c-68.07 61.83-155.53 95.88-246.254 95.88-206.125 0-373.821-173.53-373.821-386.835 0-101.984 38.086-198.246 107.239-271.066l10.757-11.34-9.168-18.738-36.043-82.301 95.68-42.058 35.258 80.23 20.711-9.352C826.973 492.84 877.234 482 929.016 482c53.113 0 104.554 11.398 152.924 33.879l20.84 9.691 32.3-73.511 95.66 42.05-42.13 96.161 10.04 10.812c35.47 38.227 58.46 72.688 74.52 111.77l5.74 13.949h97c30.31 0 54.97 24.66 54.97 54.969v54.832c0 30.3-23.39 54.961-52.13 54.961"/>
 </g>
 </symbol>
 <symbol id="icon-sm-badge" viewBox="0 0 245.66667 245.66667" >
 <g transform="matrix(.13333 0 0 -.13333 0 245.667)" fill="#231f20">
 <path d="M652.227 958.59c-6.59 2.656-13.497 4.004-20.516 4.004-22.551 0-42.578-13.524-51.008-34.442-11.348-28.101 2.305-60.203 30.418-71.543 6.594-2.656 13.496-4.004 20.52-4.004 22.558 0 42.589 13.508 51.027 34.426 11.324 28.11-2.324 60.215-30.441 71.559"/>
 <path d="M1045.36 740.781c-15.32-38.031-51.715-62.621-92.731-62.621-12.824 0-25.402 2.461-37.375 7.289-24.758 9.981-44.149 29.012-54.609 53.59-10.45 24.582-10.704 51.75-.711 76.52 15.32 38.027 51.714 62.593 92.734 62.593 12.82 0 25.391-2.449 37.359-7.273 24.763-9.981 44.163-29.008 54.613-53.59 10.46-24.578 10.71-51.75.72-76.508zM720.195 604.219l-41.738 16.832L867.93 1090.92l41.738-16.82zM594.297 814.871c-51.133 20.641-75.957 79.008-55.332 130.113 15.332 38.028 51.738 62.606 92.746 62.606 12.809 0 25.379-2.45 37.344-7.27 51.121-20.625 75.945-78.992 55.347-130.117-15.339-38.031-51.757-62.594-92.761-62.594-12.813 0-25.379 2.442-37.344 7.262zm670.183 291.719c-1.61-.04-3.2-.24-4.82-.24-56.29 0-109.2 21.92-149 61.72l31.82 31.82c30.89-30.89 71.83-48 115.44-48.45l-13.1 89.41c-4.19 28.65-32.06 55.42-60.85 58.48l-316.95 33.64c-2.75.29-5.614.43-8.543.43-32.051 0-73.223-16.08-93.75-36.6l-498.36-498.351c-9.004-9.008-13.867-20.91-13.711-33.539.157-12.621 5.332-24.41 14.563-33.18l421.929-401.128c9.258-8.801 21.614-13.653 34.797-13.661 13.582 0 26.223 5.11 35.567 14.379L1257.4 824.5c22.51 22.309 38.23 69.387 33.64 100.742l-26.56 181.348"/>
 <path d="M973.203 829.141a54.57 54.57 0 0 1-20.535 4.007c-22.563 0-42.57-13.507-50.996-34.418-5.5-13.621-5.356-28.558.391-42.082 5.742-13.507 16.406-23.968 30.015-29.457 6.613-2.671 13.527-4.031 20.551-4.031 22.559 0 42.566 13.531 50.991 34.449 5.5 13.621 5.35 28.551-.39 42.071-5.75 13.5-16.414 23.968-30.027 29.461"/>
 <path d="M1408.66 1168.07c-27.84-27.85-62.19-46.71-99.54-55.67l26.45-180.63c6.69-45.618-13.74-106.782-46.5-139.239L791.184 299.352c-17.825-17.672-41.711-27.411-67.239-27.411h-.007c-24.766.008-48.137 9.25-65.793 26.039L236.211 699.109c-18.098 17.211-28.242 40.371-28.555 65.243-.312 24.847 9.239 48.269 26.895 65.91L732.91 1328.62c28.836 28.84 81.653 49.78 125.567 49.78 4.558 0 9.035-.23 13.293-.69l316.95-33.63c49.25-5.22 93.45-47.7 100.64-96.7l13.21-90.27c27.82 7.42 53.38 21.88 74.28 42.78 31.3 31.31 48.54 72.92 48.54 117.19 0 44.26-17.24 85.88-48.54 117.19-64.61 64.59-169.74 64.6-234.37-.01l-31.82 31.83c82.18 82.14 215.86 82.14 298 0 39.81-39.8 61.73-92.73 61.73-149.01 0-56.29-21.92-109.2-61.73-149.01zm-490.613 670.56c-504.883 0-914.172-409.29-914.172-914.177 0-504.902 409.289-914.183 914.172-914.183 504.903 0 914.183 409.281 914.183 914.183 0 504.887-409.28 914.177-914.183 914.177"/>
 </g>
 </symbol>
</svg>