<?xml version="1.0" standalone="no"?>
<!DOCTYPE svg PUBLIC "-//W3C//DTD SVG 1.1//EN" "http://www.w3.org/Graphics/SVG/1.1/DTD/svg11.dtd" >
<svg xmlns="http://www.w3.org/2000/svg">
<metadata></metadata>
<defs>
<font id="nucklebold" horiz-adv-x="653" >
<font-face units-per-em="1000" ascent="768" descent="-232" />
<missing-glyph horiz-adv-x="222" />
<glyph horiz-adv-x="0" />
<glyph horiz-adv-x="333" />
<glyph unicode="&#xd;" horiz-adv-x="0" />
<glyph unicode=" "  horiz-adv-x="222" />
<glyph unicode="&#x09;" horiz-adv-x="222" />
<glyph unicode="&#xa0;" horiz-adv-x="222" />
<glyph unicode="!" horiz-adv-x="235" d="M61 234l-7 226v262h127v-262l-7 -226h-113zM50 0v131h135v-131h-135z" />
<glyph unicode="&#x22;" horiz-adv-x="390" d="M50 455v267h120v-267h-120zM220 455v267h120v-267h-120z" />
<glyph unicode="#" horiz-adv-x="804" d="M388 0l45 174h-150l-45 -174h-113l45 174h-120v88h142l41 156h-138v88h160l44 170h113l-44 -170h150l44 170h113l-44 -170h123v-88h-145l-41 -156h140v-88h-162l-45 -174h-113zM305 262h150l41 156h-150z" />
<glyph unicode="$" horiz-adv-x="711" d="M661 214q0 -96 -70 -156.5t-188 -69.5v-100h-84v101q-110 10 -183 65t-86 139l124 55q2 -55 42 -92.5t103 -48.5v222q-45 11 -74 20.5t-66.5 27t-59.5 37.5t-37.5 51.5t-15.5 71.5q0 90 69 145t184 60v92h84v-94q89 -11 150.5 -53.5t85.5 -105.5l-119 -60 q-7 38 -37.5 64.5t-79.5 37.5v-184q44 -11 75 -21.5t68.5 -29t60.5 -41t38.5 -57t15.5 -76.5zM198 547q0 -32 30.5 -51t90.5 -35v167q-55 -4 -88 -26.5t-33 -54.5zM525 204q0 38 -31.5 61t-90.5 41v-202q55 6 88.5 32.5t33.5 67.5z" />
<glyph unicode="%" horiz-adv-x="941" d="M214 294q-74 0 -119 55t-45 146t45 146t119 55t119 -55t45 -146t-45 -146t-119 -55zM165 1l479 683h121l-471 -683h-129zM214 374q35 0 54.5 31t19.5 90t-19.5 90t-54.5 31t-54.5 -31t-19.5 -90t19.5 -90t54.5 -31zM720 -12q-74 0 -119 55t-45 146t45 146t119 55t119 -55 t45 -146t-45 -146t-119 -55zM720 68q35 0 54.5 31t19.5 90t-19.5 90t-54.5 31t-54.5 -31t-19.5 -90t19.5 -90t54.5 -31z" />
<glyph unicode="&#x26;" horiz-adv-x="739" d="M576 0l-61 67q-85 -79 -218 -79q-114 0 -180.5 56.5t-66.5 146.5q0 71 40.5 122.5t110.5 98.5l-1 1q-79 86 -79 157q0 74 54.5 123t141.5 49q82 0 134.5 -46t52.5 -118q0 -58 -33.5 -101t-92.5 -85l112 -122q18 70 11 159l118 -47q6 -122 -34 -214l154 -168h-163z M250 566q0 -21 11 -39.5t40 -51.5q39 27 59.5 49t20.5 48q0 24 -17.5 42t-47.5 18t-48 -19t-18 -47zM185 198q0 -43 34 -69t88 -26q75 0 126 54l-153 169q-46 -33 -70.5 -62.5t-24.5 -65.5z" />
<glyph unicode="'" horiz-adv-x="220" d="M50 455v267h120v-267h-120z" />
<glyph unicode="(" horiz-adv-x="462" d="M341 -245q-121 123 -181 252.5t-60 278.5t60 278.5t181 252.5l96 -80q-101 -102 -149.5 -211t-48.5 -240t48.5 -240t149.5 -211z" />
<glyph unicode=")" horiz-adv-x="462" d="M362 286q0 -149 -60 -278.5t-181 -252.5l-96 80q101 102 149.5 211t48.5 240t-48.5 240t-149.5 211l96 80q121 -123 181 -252.5t60 -278.5z" />
<glyph unicode="*" horiz-adv-x="526" d="M153 348l-69 69l98 100l-132 68l47 84l118 -61v129h96v-129l118 61l47 -84l-132 -68l98 -100l-69 -69l-110 114z" />
<glyph unicode="+" horiz-adv-x="566" d="M516 283h-175v-165h-115v165h-176v114h176v166h115v-166h175v-114z" />
<glyph unicode="," horiz-adv-x="328" d="M170 -123h-120l85 299h143z" />
<glyph unicode="-" horiz-adv-x="448" d="M50 229v116h348v-115z" />
<glyph unicode="." horiz-adv-x="260" d="M50 0v156h160v-156h-160z" />
<glyph unicode="/" horiz-adv-x="452" d="M-10 0l355 722h117l-350 -722h-122z" />
<glyph unicode="0" horiz-adv-x="676" d="M338 -11q-137 0 -217.5 101.5t-80.5 274.5t80.5 274.5t217.5 101.5t217.5 -101.5t80.5 -274.5t-80.5 -274.5t-217.5 -101.5zM338 109q80 0 121.5 65t41.5 191t-41.5 191t-121.5 65t-121.5 -65t-41.5 -191t41.5 -191t121.5 -65z" />
<glyph unicode="1" horiz-adv-x="394" d="M189 0v529q-61 -34 -159 -56v121q53 1 105 36.5t75 91.5h114v-722h-135z" />
<glyph unicode="2" horiz-adv-x="617" d="M30 0v19q0 83 38.5 144.5t127.5 113.5l129 75q126 76 126 156q0 52 -39 82t-99 30q-70 0 -110.5 -42t-40.5 -118l-127 60q3 33 20.5 69t50 71t88 58t124.5 23q121 0 195 -63t74 -164q0 -149 -179 -255l-130 -72q-37 -22 -53.5 -36t-23.5 -30h385v-121h-556z" />
<glyph unicode="3" horiz-adv-x="626" d="M308 -13q-120 0 -201 66.5t-87 169.5l132 51q-5 -71 36.5 -119t119.5 -48q59 0 98 30.5t39 83.5q0 45 -40.5 74t-112.5 29h-41v112h45q65 0 99.5 26t34.5 68q0 43 -36 67t-88 24q-65 0 -104 -40t-39 -101l-130 47q10 94 87.5 154t192.5 60q110 0 183.5 -54t73.5 -138 q0 -58 -37 -104t-99 -62q66 -14 109 -60.5t43 -113.5q0 -91 -80.5 -156.5t-197.5 -65.5z" />
<glyph unicode="4" horiz-adv-x="657" d="M30 240l376 482h124v-456h107v-115h-107v-151h-125v151h-375v89zM189 266h216v279z" />
<glyph unicode="5" horiz-adv-x="618" d="M588 258q0 -117 -80.5 -193.5t-204.5 -76.5q-115 0 -191.5 65.5t-81.5 166.5l123 54q-7 -72 37.5 -119t116.5 -47q67 0 106.5 42t39.5 105t-40 99.5t-104 36.5q-91 0 -139 -61l-113 48l55 344h425v-120h-325l-22 -144q63 44 152 44q110 0 178 -68.5t68 -175.5z" />
<glyph unicode="6" horiz-adv-x="634" d="M604 257q0 -117 -79 -193.5t-203 -76.5t-203 86.5t-79 259.5q0 181 87.5 294.5t246.5 113.5q71 0 124 -21.5t80 -50.5l-65 -132q-23 38 -63 61t-87 23q-73 0 -123 -51t-56 -131q76 63 174 63q109 0 177.5 -69t68.5 -176zM180 255q0 -68 39.5 -108t107.5 -40 q65 0 103.5 39t38.5 106q0 68 -38 107.5t-104 39.5q-65 0 -106 -40t-41 -104z" />
<glyph unicode="7" horiz-adv-x="545" d="M149 0q59 395 205 602h-344v120h525v-79q-116 -129 -171.5 -281.5t-80.5 -361.5h-134z" />
<glyph unicode="8" horiz-adv-x="640" d="M600 207q0 -99 -79 -159.5t-201 -60.5t-201 60.5t-79 159.5q0 128 134 186q-107 61 -107 161q0 83 72 135.5t181 52.5t181 -52.5t72 -135.5q0 -100 -107 -161q134 -58 134 -186zM320 452q54 0 86 22.5t32 62.5q0 38 -32 61.5t-86 23.5t-86 -23.5t-32 -61.5 q0 -40 32 -62.5t86 -22.5zM320 107q67 0 106 30.5t39 82.5q0 51 -39.5 82.5t-105.5 31.5t-105.5 -31.5t-39.5 -82.5q0 -52 39 -82.5t106 -30.5z" />
<glyph unicode="9" horiz-adv-x="635" d="M261 -13q-71 0 -125 22t-81 51l61 123q21 -36 63 -56t91 -20q78 0 127 51.5t53 131.5q-72 -63 -171 -63q-111 0 -180 69t-69 178q0 115 78.5 191t203.5 76q128 0 205.5 -85t77.5 -258q0 -179 -87.5 -295t-246.5 -116zM309 330q64 0 104 40t40 104q0 66 -40.5 106.5 t-105.5 40.5q-63 0 -102.5 -40t-39.5 -106q0 -65 40 -105t104 -40z" />
<glyph unicode=":" horiz-adv-x="260" d="M50 396v156h160v-156h-160zM50 0v156h160v-156h-160z" />
<glyph unicode=";" horiz-adv-x="324" d="M114 397v156h160v-156h-160zM150 -123h-120l85 299h143z" />
<glyph unicode="&#x3c;" horiz-adv-x="546" d="M496 209v-132l-446 226v74l446 226v-132l-275 -131z" />
<glyph unicode="=" horiz-adv-x="566" d="M50 381v114h466v-114h-466zM50 185v114h466v-114h-466z" />
<glyph unicode="&#x3e;" horiz-adv-x="546" d="M496 303l-446 -226v132l275 131l-275 131v132l446 -226v-74z" />
<glyph unicode="?" horiz-adv-x="601" d="M231 215q3 44 24.5 81t49.5 62.5t55.5 48.5t46.5 51.5t19 60.5q0 50 -31 79t-85 29q-71 0 -108.5 -49.5t-30.5 -134.5l-121 62q3 105 75 171t185 66q107 0 174 -59t67 -153q0 -52 -19 -94.5t-47 -71t-56 -52t-49.5 -48t-23.5 -49.5h-125zM218 0v146h150v-146h-150z" />
<glyph unicode="@" horiz-adv-x="922" d="M732 38q-121 -97 -284 -97q-179 0 -288.5 107.5t-109.5 269.5q0 179 129 305.5t322 126.5q165 0 268 -96t103 -243q0 -115 -61.5 -193.5t-150.5 -78.5q-43 0 -72.5 19t-39.5 52q-57 -71 -145 -71q-72 0 -119 48.5t-47 128.5q0 101 72 174t161 73q75 0 113 -55l11 47h98 l-63 -268q-7 -28 2.5 -44.5t32.5 -16.5q42 0 75 51.5t33 128.5q0 111 -74.5 182t-195.5 71q-145 0 -245 -98t-100 -240q0 -130 85 -210.5t209 -80.5q66 0 128.5 24.5t102.5 66.5zM346 314q0 -43 19 -65.5t52 -22.5q39 0 73.5 29.5t49.5 75.5l7 29q2 18 2 27q0 43 -20 66 t-53 23q-52 0 -91 -48t-39 -114z" />
<glyph unicode="A" horiz-adv-x="717" d="M0 0l289 722h140l288 -722h-152l-63 168h-287l-63 -168h-152zM259 284h199l-99 264z" />
<glyph unicode="B" horiz-adv-x="716" d="M70 0v722h342q100 0 161.5 -48t61.5 -125q0 -54 -29 -96t-82 -66q76 -19 116.5 -65t40.5 -111q0 -95 -72.5 -153t-190.5 -58h-348zM383 592h-173v-158h166q58 0 87.5 23t29.5 60q0 75 -110 75zM407 314h-197v-184h181q148 0 148 95q0 89 -132 89z" />
<glyph unicode="C" horiz-adv-x="757" d="M722 199q-37 -98 -125 -154.5t-201 -56.5q-158 0 -259.5 106t-101.5 270q0 165 103 271.5t263 106.5q113 0 198.5 -56.5t122.5 -154.5l-126 -71q-16 72 -68 112t-128 40q-100 0 -160 -67t-60 -180q0 -112 60 -179.5t161 -67.5q76 0 127 40t68 112z" />
<glyph unicode="D" horiz-adv-x="752" d="M70 0v722h285q163 0 262.5 -99t99.5 -262t-99.5 -262t-262.5 -99h-285zM346 592h-136v-462h136q112 0 169 61t57 170t-57 170t-169 61z" />
<glyph unicode="E" horiz-adv-x="629" d="M70 0v722h539v-130h-399v-166h355v-130h-355v-166h399v-130h-539z" />
<glyph unicode="F" horiz-adv-x="613" d="M70 0v722h524v-122h-384v-178h340v-122h-340v-300h-140z" />
<glyph unicode="G" horiz-adv-x="780" d="M388 286v122h342v-408h-122v73q-90 -85 -223 -85q-146 0 -248 100.5t-102 273.5q0 172 106.5 276t265.5 104q109 0 193 -51t124 -142l-129 -74q-17 64 -67.5 100.5t-121.5 36.5q-98 0 -162 -65.5t-64 -178.5t61 -181.5t158 -68.5q79 0 136.5 46.5t70.5 121.5h-218z" />
<glyph unicode="H" horiz-adv-x="768" d="M558 0v300h-348v-300h-140v722h140v-302h348v302h140v-722h-140z" />
<glyph unicode="I" horiz-adv-x="280" d="M70 0v722h140v-722h-140z" />
<glyph unicode="J" horiz-adv-x="636" d="M313 -12q-109 0 -181 62.5t-82 167.5l133 56q7 -156 130 -156t123 157v447h140v-463q0 -121 -71.5 -196t-191.5 -75z" />
<glyph unicode="K" horiz-adv-x="679" d="M517 0l-196 329l-111 -129v-200h-140v722h140v-339l287 339h161l-249 -290l270 -432h-162z" />
<glyph unicode="L" horiz-adv-x="601" d="M581 130v-130h-511v722h140v-592h371z" />
<glyph unicode="M" horiz-adv-x="933" d="M723 0v530l-197 -530h-120l-196 527v-527h-140v722h192l204 -560l204 560h193v-722h-140z" />
<glyph unicode="N" horiz-adv-x="777" d="M707 722v-722h-157l-340 512v-512h-140v722h155l342 -512v512h140z" />
<glyph unicode="O" horiz-adv-x="810" d="M405 -12q-98 0 -180 43t-133.5 130.5t-51.5 203.5t51.5 203.5t133.5 130.5t180 43t180 -43t133.5 -130.5t51.5 -203.5t-51.5 -203.5t-133.5 -130.5t-180 -43zM405 118q94 0 157 65.5t63 181.5t-63 181.5t-157 65.5t-157 -65.5t-63 -181.5t63 -181.5t157 -65.5z" />
<glyph unicode="P" horiz-adv-x="696" d="M70 0v722h326q122 0 193.5 -63t71.5 -172q0 -110 -70.5 -172.5t-194.5 -62.5h-186v-252h-140zM389 592h-179v-210h168q143 0 143 106q0 104 -132 104z" />
<glyph unicode="Q" horiz-adv-x="829" d="M794 111v-111h-394q-152 0 -258.5 99.5t-106.5 270.5t106.5 271.5t256.5 100.5q151 0 260 -100t109 -254q0 -86 -38.5 -159.5t-106.5 -117.5h172zM180 371q0 -113 63 -177t157 -64t157 64t63 177t-63 177t-157 64t-157 -64t-63 -177z" />
<glyph unicode="R" horiz-adv-x="737" d="M70 0v722h321q121 0 191.5 -54.5t70.5 -149.5q0 -133 -131 -183q56 -19 84 -77q13 -28 41 -115t55 -143h-152q-18 42 -37 112.5t-40 109.5q-16 31 -44 42.5t-82 11.5h-137v-276h-140zM387 592h-177v-186h177q126 0 126 94q0 92 -126 92z" />
<glyph unicode="S" horiz-adv-x="666" d="M339 -13q-130 0 -217 56.5t-102 150.5l136 61q1 -63 55 -102.5t135 -39.5q63 0 103.5 25t40.5 66q0 30 -25 51.5t-65 34.5t-88.5 25t-97 28t-88.5 38.5t-65 61t-25 90.5q0 96 77.5 153t204.5 57q110 0 189.5 -43.5t108.5 -116.5l-129 -66q-10 46 -55 73.5t-115 27.5 q-60 0 -97.5 -20.5t-37.5 -52.5q0 -29 34 -49.5t85 -31.5t110.5 -29.5t110.5 -41t85 -68.5t34 -109q0 -104 -82.5 -166.5t-219.5 -62.5z" />
<glyph unicode="T" horiz-adv-x="669" d="M15 592v130h639v-130h-249v-592h-140v592h-250z" />
<glyph unicode="U" horiz-adv-x="740" d="M370 -12q-139 0 -224.5 88.5t-85.5 224.5v421h140v-405q0 -97 45.5 -148t124.5 -51t124.5 51t45.5 148v405h140v-421q0 -136 -85.5 -224.5t-224.5 -88.5z" />
<glyph unicode="V" horiz-adv-x="722" d="M712 722l-280 -722h-142l-280 722h144l155 -407q23 -59 52 -142q34 96 52 144l155 405h144z" />
<glyph unicode="W" horiz-adv-x="947" d="M415 262l-67 -262h-145l-193 722h146l57 -228q40 -161 66 -293q35 164 69 293l60 228h131l60 -228q30 -116 70 -294q42 196 66 294l56 228h146l-193 -722h-145l-67 262q-3 11 -58 249q-47 -202 -59 -249z" />
<glyph unicode="X" horiz-adv-x="709" d="M10 0l267 360l-267 362h163l181 -254l181 254h163l-266 -362l267 -360h-167l-178 251l-177 -251h-167z" />
<glyph unicode="Y" horiz-adv-x="729" d="M299 0v239l-289 483h150l204 -351l205 351h150l-289 -483v-239h-131z" />
<glyph unicode="Z" horiz-adv-x="682" d="M60 592v130h571v-111l-410 -481h426v-130h-612v111l412 481h-387z" />
<glyph unicode="[" horiz-adv-x="372" d="M100 -248v1067h247v-120h-117v-827h117v-120h-247z" />
<glyph unicode="\" horiz-adv-x="452" d="M107 722l355 -722h-122l-350 722h117z" />
<glyph unicode="]" horiz-adv-x="372" d="M272 819v-1067h-247v120h117v827h-117v120h247z" />
<glyph unicode="^" horiz-adv-x="600" />
<glyph unicode="_" horiz-adv-x="500" d="M0 -105v105h500v-105h-500z" />
<glyph unicode="`" horiz-adv-x="324" d="M191 774l83 -155h-107l-117 155h141z" />
<glyph unicode="a" horiz-adv-x="604" d="M420 0q-6 24 -9 78q-71 -90 -186 -90q-87 0 -141 46t-54 122q0 158 239 195l142 22v11q0 42 -29 64t-83 22q-118 0 -143 -104l-106 76q68 143 254 143q111 0 171.5 -51t60.5 -145v-265q0 -70 13 -124h-129zM247 97q63 0 113.5 41t50.5 93v36l-102 -16q-81 -13 -115 -32.5 t-34 -54.5q0 -30 23 -48.5t64 -18.5z" />
<glyph unicode="b" horiz-adv-x="659" d="M629 288q0 -133 -71.5 -216.5t-185.5 -83.5q-56 0 -104.5 23.5t-77.5 67.5v-79h-130v722h130v-245q34 51 86 79.5t111 28.5q101 0 171.5 -79.5t70.5 -217.5zM190 286q0 -82 42.5 -132.5t110.5 -50.5t110.5 51t42.5 133q0 81 -42 132t-110 51t-111 -51t-43 -133z" />
<glyph unicode="c" horiz-adv-x="605" d="M317 -12q-127 0 -207 82.5t-80 216.5q0 133 79.5 215.5t205.5 82.5q95 0 162.5 -47.5t97.5 -133.5l-121 -50q-25 116 -136 116q-71 0 -113 -50t-42 -133q0 -84 42.5 -134t113.5 -50q110 0 135 116l120 -50q-31 -88 -97 -134.5t-160 -46.5z" />
<glyph unicode="d" horiz-adv-x="659" d="M469 0v77q-64 -89 -182 -89q-113 0 -185 83t-72 215q0 139 73.5 219t175.5 80q120 0 190 -102v239h130v-722h-130zM316 103q68 0 110.5 50.5t42.5 132.5t-43 133t-111 51t-110 -51t-42 -132q0 -82 42.5 -133t110.5 -51z" />
<glyph unicode="e" horiz-adv-x="619" d="M319 -12q-129 0 -209 82t-80 216q0 135 80.5 217t209.5 82q132 0 205 -88t63 -239h-422q-1 -66 42 -110.5t113 -44.5q109 0 137 104l115 -51q-32 -81 -98 -124.5t-156 -43.5zM172 360h283q-6 48 -42 79t-94 31t-97.5 -30.5t-49.5 -79.5z" />
<glyph unicode="f" horiz-adv-x="376" d="M338 476h-108v-476h-130v476h-80v92h82q2 81 48 127.5t124 46.5q63 0 97 -31l-24 -92q-24 25 -56 25q-28 0 -45.5 -20t-18.5 -56h111v-92z" />
<glyph unicode="g" horiz-adv-x="654" d="M599 62q0 -152 -76.5 -233t-218.5 -81q-206 0 -274 165l108 75q10 -58 54 -91.5t109 -33.5q78 0 123 48.5t45 128.5v52q-29 -43 -77.5 -66.5t-104.5 -23.5q-113 0 -185 81.5t-72 208.5q0 136 76.5 214.5t182.5 78.5q113 0 180 -83v72h130v-512zM316 117q68 0 110.5 49 t42.5 129q0 79 -42.5 127t-111.5 48q-68 0 -110 -48t-42 -127q0 -80 42.5 -129t110.5 -49z" />
<glyph unicode="h" d="M190 251v-251h-130v722h130v-233q73 96 200 96q97 0 152.5 -60.5t55.5 -163.5v-361h-130v336q0 64 -31.5 98.5t-85.5 34.5q-73 0 -117 -60t-44 -158z" />
<glyph unicode="i" horiz-adv-x="250" d="M60 636v132h130v-132h-130zM60 0v573h130v-573h-130z" />
<glyph unicode="j" horiz-adv-x="236" d="M51 636v132h130v-132h-130zM-15 -252l-35 117q56 3 78.5 27t22.5 76v605h130v-613q0 -89 -53.5 -145t-142.5 -67z" />
<glyph unicode="k" horiz-adv-x="613" d="M453 0l-162 260l-101 -112v-148h-130v722h130v-402l232 253h151l-194 -216l234 -357h-160z" />
<glyph unicode="l" horiz-adv-x="250" d="M190 0h-130v722h130v-722z" />
<glyph unicode="m" horiz-adv-x="981" d="M190 251v-251h-130v573h130v-84q62 96 170 96q58 0 104.5 -29.5t69.5 -83.5q35 55 87.5 84t112.5 29q84 0 135.5 -56.5t51.5 -154.5v-374h-130v343q0 127 -102 127q-65 0 -100.5 -57t-35.5 -162v-251h-130v343q0 63 -26 95t-73 32q-63 0 -98.5 -58t-35.5 -161z" />
<glyph unicode="n" d="M190 251v-251h-130v573h130v-84q73 96 200 96q97 0 152.5 -60.5t55.5 -163.5v-361h-130v336q0 64 -31.5 98.5t-85.5 34.5q-73 0 -117 -60t-44 -158z" />
<glyph unicode="o" horiz-adv-x="632" d="M316 -12q-128 0 -207 82t-79 216t79 216.5t207 82.5t207 -82.5t79 -216.5t-79 -216t-207 -82zM316 103q68 0 110.5 50.5t42.5 132.5t-42.5 133t-110.5 51t-110.5 -51t-42.5 -133t42.5 -132.5t110.5 -50.5z" />
<glyph unicode="p" horiz-adv-x="659" d="M376 -12q-56 0 -106.5 24t-79.5 68v-312h-130v805h130v-96q33 51 85 79.5t111 28.5q103 0 173 -82.5t70 -214.5q0 -134 -72.5 -217t-180.5 -83zM343 103q68 0 110.5 51t42.5 133q0 81 -42 132t-110 51t-111 -51t-43 -133t42.5 -132.5t110.5 -50.5z" />
<glyph unicode="q" horiz-adv-x="659" d="M599 573v-805h-130v312q-29 -44 -79.5 -68t-106.5 -24q-108 0 -180.5 83t-72.5 217q0 132 70 214.5t173 82.5q59 0 111 -28.5t85 -79.5v96h130zM163 287q0 -82 42.5 -133t110.5 -51t110.5 50.5t42.5 132.5t-43 133t-111 51t-110 -51t-42 -132z" />
<glyph unicode="r" horiz-adv-x="473" d="M190 226v-226h-130v573h130v-87q62 99 159 99q37 0 70.5 -15.5t48.5 -38.5l-58 -110q-26 40 -79 40q-62 0 -101.5 -58t-39.5 -177z" />
<glyph unicode="s" horiz-adv-x="590" d="M303 -12q-106 0 -176 44t-87 119l118 54q6 -47 48.5 -77.5t99.5 -30.5q44 0 73.5 18t29.5 45q0 26 -35.5 44t-86.5 31t-101.5 31t-86 55t-35.5 91q0 79 62.5 124.5t162.5 45.5q94 0 161 -40t85 -102l-124 -54q-3 36 -38 61.5t-87 25.5q-39 0 -65.5 -15t-26.5 -38 q0 -25 35.5 -42t86.5 -30t102 -31t86.5 -56.5t35.5 -95.5q0 -79 -64.5 -128t-172.5 -49z" />
<glyph unicode="t" horiz-adv-x="385" d="M365 23q-33 -35 -105 -35q-75 0 -116 46t-41 128v312h-88v99h88v69l130 100v-169h108v-99h-108v-305q0 -67 47 -67q36 0 59 28z" />
<glyph unicode="u" d="M463 0v88q-76 -100 -200 -100q-94 0 -151 58.5t-57 147.5v379h130v-339q0 -63 30 -96.5t86 -33.5q76 0 119 60t43 158v251h130v-573h-130z" />
<glyph unicode="v" horiz-adv-x="598" d="M593 573l-226 -573h-137l-225 573h140l154 -419l154 419h140z" />
<glyph unicode="w" horiz-adv-x="865" d="M860 573l-188 -573h-120l-119 391l-120 -391h-120l-188 573h133l119 -398l116 398h116l118 -399l118 399h135z" />
<glyph unicode="x" horiz-adv-x="611" d="M5 0l231 297l-215 276h147l137 -180l135 180h150l-214 -276l230 -297h-147l-154 200l-150 -200h-150z" />
<glyph unicode="y" horiz-adv-x="628" d="M360 -92q-33 -84 -76 -122t-111 -38q-90 0 -144 60l66 98q32 -43 76 -43t61 46l34 91l-261 573h148l174 -410l154 410h142z" />
<glyph unicode="z" horiz-adv-x="581" d="M51 458v115h484v-99l-328 -359h344v-115h-521v99l328 359h-307z" />
<glyph unicode="{" horiz-adv-x="495" d="M470 -126v-120h-75q-85 0 -128 47.5t-43 135.5v188q0 59 -25 80t-99 21v122q74 0 99 21t25 80v188q0 88 43 135.5t128 47.5h75v-120h-61q-55 0 -55 -55v-210q0 -66 -27.5 -100t-98.5 -47q71 -13 98.5 -47t27.5 -100v-212q0 -55 55 -55h61z" />
<glyph unicode="|" horiz-adv-x="230" d="M50 -92v906h130v-906h-130z" />
<glyph unicode="}" horiz-adv-x="500" d="M276 -63q0 -88 -43 -135.5t-128 -47.5h-75v120h61q55 0 55 55v212q0 66 27.5 100t98.5 47q-71 13 -98.5 47t-27.5 100v210q0 55 -55 55h-61v120h75q85 0 128 -47.5t43 -135.5v-188q0 -59 25 -80t99 -21v-122q-74 0 -99 -21t-25 -80v-188z" />
<glyph unicode="~" horiz-adv-x="571" d="M421 248q-39 0 -128 35t-125 35q-54 0 -99 -48l-19 109q58 54 120 54q42 0 129 -35t125 -35q42 0 77 39l20 -109q-37 -45 -100 -45z" />
<glyph unicode="&#xa1;" horiz-adv-x="235" d="M185 359h-135v131h135v-131zM181 -232h-127v262l7 226h113l7 -226v-262z" />
<glyph unicode="&#xa2;" horiz-adv-x="640" d="M589 169q-58 -162 -217 -179v-82h-86v84q-107 15 -171.5 94.5t-64.5 200.5q0 120 64.5 199t171.5 95v81h86v-80q79 -10 135 -55.5t83 -122.5l-110 -47q-22 102 -108 120v-381q86 19 108 119zM171 287q0 -73 31 -122.5t84 -65.5v375q-53 -17 -84 -66t-31 -121z" />
<glyph unicode="&#xa3;" horiz-adv-x="735" d="M685 102q-34 -59 -77 -86.5t-104 -27.5q-45 0 -115 23t-117 23q-67 0 -153 -45l-47 99q132 59 132 178q0 25 -4 42h-150v103h112q-33 74 -33 124q0 94 73 150.5t182 56.5q101 0 171 -50t89 -144l-116 -54q-12 67 -51 101t-97 34q-53 0 -86 -27t-33 -68q0 -8 2 -18.5 t4 -18t7.5 -21.5t8 -20t10 -23t9.5 -22h246v-103h-214q2 -20 2 -29q0 -78 -60 -141q22 7 53 7q37 0 89 -18t81 -18q74 0 93 87z" />
<glyph unicode="&#xa4;" horiz-adv-x="600" />
<glyph unicode="&#xa5;" horiz-adv-x="719" d="M648 162h-228v-162h-121v162h-229v86h224l-32 53h-192v86h140l-200 335h141l208 -355l210 355h140l-200 -335h139v-86h-191l-32 -53h223v-86z" />
<glyph unicode="&#xa6;" horiz-adv-x="230" d="M50 419v395h130v-395h-130zM50 -91v395h130v-395h-130z" />
<glyph unicode="&#xa7;" horiz-adv-x="663" d="M591 62q0 -88 -68.5 -140.5t-187.5 -52.5q-108 0 -184 49t-89 129l124 51q1 -53 44.5 -86t109.5 -33q51 0 84 20.5t33 55.5q0 32 -42 52.5t-101.5 34.5t-119.5 32.5t-102 58.5t-42 100q0 75 84 117q-59 44 -59 116q0 81 68.5 129.5t181.5 48.5q97 0 167.5 -38.5 t96.5 -101.5l-114 -56q-9 39 -49.5 62.5t-102.5 23.5q-54 0 -85.5 -17t-31.5 -45q0 -23 30 -40t75.5 -26.5t98 -25.5t98 -36t75.5 -59t30 -93q0 -69 -68 -119q46 -44 46 -111zM185 343q0 -27 37 -44t112 -35t115 -34q29 21 29 52q0 19 -13 34t-39.5 26t-51.5 18.5 t-65.5 18.5t-65.5 19q-58 -16 -58 -55z" />
<glyph unicode="&#xa8;" horiz-adv-x="479" d="M298 640v124h131v-124h-131zM50 640v124h131v-124h-131z" />
<glyph unicode="&#xa9;" horiz-adv-x="852" d="M426 -12q-163 0 -269.5 105t-106.5 272t106.5 272t269.5 105t269.5 -105t106.5 -272t-106.5 -272t-269.5 -105zM426 43q138 0 227 90t89 232t-89 232t-227 90t-227 -90t-89 -232t89 -232t227 -90zM430 137q-96 0 -157 64t-61 162t61.5 162.5t158.5 64.5q68 0 120.5 -34 t74.5 -91l-84 -48q-10 40 -39.5 62t-71.5 22q-57 0 -89.5 -37.5t-32.5 -100.5t32.5 -100.5t89.5 -37.5q44 0 72.5 22t38.5 62l84 -48q-23 -56 -76 -90t-121 -34z" />
<glyph unicode="&#xaa;" horiz-adv-x="604" d="M420 0q-6 24 -9 78q-71 -90 -186 -90q-87 0 -141 46t-54 122q0 158 239 195l142 22v11q0 42 -29 64t-83 22q-118 0 -143 -104l-106 76q68 143 254 143q111 0 171.5 -51t60.5 -145v-265q0 -70 13 -124h-129zM247 97q63 0 113.5 41t50.5 93v36l-102 -16q-81 -13 -115 -32.5 t-34 -54.5q0 -30 23 -48.5t64 -18.5z" />
<glyph unicode="&#xab;" horiz-adv-x="625" d="M203 95l-153 191l153 191h139l-159 -191l159 -191h-139zM436 95l-153 191l153 191h139l-159 -191l159 -191h-139z" />
<glyph unicode="&#xac;" horiz-adv-x="566" d="M50 488h466v-295h-115v181h-351v114z" />
<glyph unicode="&#xad;" horiz-adv-x="448" d="M50 229v116h348v-115z" />
<glyph unicode="&#xae;" horiz-adv-x="852" d="M426 -12q-163 0 -269.5 105t-106.5 272t106.5 272t269.5 105t269.5 -105t106.5 -272t-106.5 -272t-269.5 -105zM426 43q138 0 227 90t89 232t-89 232t-227 90t-227 -90t-89 -232t89 -232t227 -90zM344 317v-162h-95v434h207q71 0 110.5 -31t39.5 -90q0 -81 -82 -112 q38 -10 56.5 -42t31 -83.5t25.5 -75.5h-102q-8 20 -14.5 48.5t-11.5 46t-14.5 34.5t-28.5 25t-49 8h-73zM344 405h105q64 0 64 50q0 45 -63 45h-106v-95z" />
<glyph unicode="&#xaf;" horiz-adv-x="457" d="M50 634v94h357v-94h-357z" />
<glyph unicode="&#xb0;" horiz-adv-x="406" d="M203 452q-66 0 -109.5 41t-43.5 104t43.5 104t109.5 41t109.5 -41t43.5 -104t-43.5 -104t-109.5 -41zM203 532q28 0 46 18.5t18 46.5t-18 46.5t-46 18.5t-46 -18.5t-18 -46.5t18 -46.5t46 -18.5z" />
<glyph unicode="&#xb1;" horiz-adv-x="566" d="M516 359h-175v-125h-115v125h-176v114h176v126h115v-126h175v-114zM50 81v114h466v-114h-466z" />
<glyph unicode="&#xb4;" horiz-adv-x="324" d="M50 619l83 155h141l-117 -155h-107z" />
<glyph unicode="&#xb6;" horiz-adv-x="684" d="M287 -180v555h-64q-71 0 -122 51t-51 122q0 72 51 123t122 51h411v-80h-78v-822h-90v822h-89v-822h-90z" />
<glyph unicode="&#xb7;" horiz-adv-x="260" d="M50 199v156h160v-156h-160z" />
<glyph unicode="&#xb8;" horiz-adv-x="349" d="M299 -132q0 -46 -33.5 -74.5t-89.5 -28.5q-75 0 -126 56l45 54q34 -42 77 -42q42 0 42 33q0 30 -40 30q-17 0 -33 -8l-36 48l42 72h88l-34 -57q45 -1 71.5 -23.5t26.5 -59.5z" />
<glyph unicode="&#xba;" horiz-adv-x="632" d="M316 -12q-128 0 -207 82t-79 216t79 216.5t207 82.5t207 -82.5t79 -216.5t-79 -216t-207 -82zM316 103q68 0 110.5 50.5t42.5 132.5t-42.5 133t-110.5 51t-110.5 -51t-42.5 -133t42.5 -132.5t110.5 -50.5z" />
<glyph unicode="&#xbb;" horiz-adv-x="625" d="M575 286l-153 -191h-139l159 191l-159 191h139zM342 286l-153 -191h-139l159 191l-159 191h139z" />
<glyph unicode="&#xbc;" horiz-adv-x="1600" />
<glyph unicode="&#xbd;" horiz-adv-x="1600" />
<glyph unicode="&#xbe;" horiz-adv-x="1600" />
<glyph unicode="&#xbf;" horiz-adv-x="601" d="M233 344v146h150v-146h-150zM291 -252q-107 0 -174 59t-67 153q0 52 19 94.5t47 71t56 52t49.5 48t23.5 49.5h125q-3 -44 -24.5 -81t-49.5 -62.5t-55.5 -48.5t-46.5 -51.5t-19 -60.5q0 -50 31 -79t85 -29q71 0 108.5 49.5t30.5 134.5l121 -62q-3 -105 -75 -171t-185 -66z " />
<glyph unicode="&#xc0;" horiz-adv-x="717" d="M338 950l89 -165h-129l-121 165h161zM0 0l289 722h140l288 -722h-152l-63 168h-287l-63 -168h-152zM259 284h199l-99 264z" />
<glyph unicode="&#xc1;" horiz-adv-x="717" d="M302 785l89 165h161l-121 -165h-129zM0 0l289 722h140l288 -722h-152l-63 168h-287l-63 -168h-152zM259 284h199l-99 264z" />
<glyph unicode="&#xc2;" horiz-adv-x="717" d="M134 785l153 165h137l153 -165h-138l-81 78l-82 -78h-142zM0 0l289 722h140l288 -722h-152l-63 168h-287l-63 -168h-152zM259 284h199l-99 264z" />
<glyph unicode="&#xc3;" horiz-adv-x="717" d="M140 787q-3 72 32 117.5t95 45.5q42 0 105.5 -31t76.5 -31q17 0 26 15t8 41h95q3 -74 -27 -117.5t-93 -43.5q-39 0 -102.5 30t-79.5 30q-20 0 -30.5 -15.5t-9.5 -40.5h-96zM0 0l289 722h140l288 -722h-152l-63 168h-287l-63 -168h-152zM259 284h199l-99 264z" />
<glyph unicode="&#xc4;" horiz-adv-x="717" d="M149 794v147h149v-147h-149zM421 794v147h148v-147h-148zM0 0l289 722h140l288 -722h-152l-63 168h-287l-63 -168h-152zM259 284h199l-99 264z" />
<glyph unicode="&#xc5;" horiz-adv-x="717" d="M359 763q-53 0 -88.5 34t-35.5 87t35.5 87t88.5 34t88.5 -34t35.5 -87t-35.5 -87t-88.5 -34zM359 834q22 0 34.5 14t12.5 36t-12.5 36t-34.5 14t-34.5 -14t-12.5 -36t12.5 -36t34.5 -14zM0 0l289 722h140l288 -722h-152l-63 168h-287l-63 -168h-152zM259 284h199l-99 264 z" />
<glyph unicode="&#xc6;" horiz-adv-x="1091" d="M1051 130v-130h-539v173h-258l-101 -173h-153l430 722h621v-130h-399v-166h355v-130h-355v-166h399zM316 279h196v337z" />
<glyph unicode="&#xc7;" horiz-adv-x="757" d="M508 -131q0 -46 -33.5 -74.5t-89.5 -28.5q-75 0 -126 56l45 54q34 -42 77 -42q42 0 42 33q0 30 -40 30q-17 0 -33 -8l-36 48l32 54q-139 17 -225 120t-86 253q0 165 103 271.5t263 106.5q113 0 198.5 -56.5t122.5 -154.5l-126 -71q-16 72 -68 112t-128 40 q-100 0 -160 -67t-60 -180q0 -112 60 -179.5t161 -67.5q76 0 127 40t68 112l126 -71q-33 -89 -110.5 -144.5t-178.5 -64.5l-23 -38q45 -1 71.5 -23.5t26.5 -59.5z" />
<glyph unicode="&#xc8;" horiz-adv-x="629" d="M355 950l89 -165h-129l-121 165h161zM70 0v722h539v-130h-399v-166h355v-130h-355v-166h399v-130h-539z" />
<glyph unicode="&#xc9;" horiz-adv-x="629" d="M261 785l89 165h161l-121 -165h-129zM70 0v722h539v-130h-399v-166h355v-130h-355v-166h399v-130h-539z" />
<glyph unicode="&#xca;" horiz-adv-x="629" d="M120 785l153 165h137l153 -165h-138l-81 78l-82 -78h-142zM70 0v722h539v-130h-399v-166h355v-130h-355v-166h399v-130h-539z" />
<glyph unicode="&#xcb;" horiz-adv-x="629" d="M135 794v147h149v-147h-149zM407 794v147h148v-147h-148zM70 0v722h539v-130h-399v-166h355v-130h-355v-166h399v-130h-539z" />
<glyph unicode="&#xcc;" horiz-adv-x="280" d="M124 950l89 -165h-129l-121 165h161zM70 0v722h140v-722h-140z" />
<glyph unicode="&#xcd;" horiz-adv-x="280" d="M75 785l89 165h161l-121 -165h-129zM70 0v722h140v-722h-140z" />
<glyph unicode="&#xce;" horiz-adv-x="280" d="M-85 785l153 165h137l153 -165h-138l-81 78l-82 -78h-142zM70 0v722h140v-722h-140z" />
<glyph unicode="&#xcf;" horiz-adv-x="280" d="M-70 794v147h149v-147h-149zM202 794v147h148v-147h-148zM70 0v722h140v-722h-140z" />
<glyph unicode="&#xd0;" horiz-adv-x="752" d="M0 417h70v305h285q163 0 262.5 -99t99.5 -262t-99.5 -262t-262.5 -99h-285v306h-70v111zM435 306h-225v-176h136q112 0 169 61t57 170t-57 170t-169 61h-136v-175h225v-111z" />
<glyph unicode="&#xd1;" horiz-adv-x="777" d="M180 787q-3 72 32 117.5t95 45.5q42 0 105.5 -31t76.5 -31q17 0 26 15t8 41h95q3 -74 -27 -117.5t-93 -43.5q-39 0 -102.5 30t-79.5 30q-20 0 -30.5 -15.5t-9.5 -40.5h-96zM707 722v-722h-157l-340 512v-512h-140v722h155l342 -512v512h140z" />
<glyph unicode="&#xd2;" horiz-adv-x="800" d="M399 950l89 -165h-129l-121 165h161zM405 -12q-98 0 -180 43t-133.5 130.5t-51.5 203.5t51.5 203.5t133.5 130.5t180 43t180 -43t133.5 -130.5t51.5 -203.5t-51.5 -203.5t-133.5 -130.5t-180 -43zM405 118q94 0 157 65.5t63 181.5t-63 181.5t-157 65.5t-157 -65.5 t-63 -181.5t63 -181.5t157 -65.5z" />
<glyph unicode="&#xd3;" horiz-adv-x="800" d="M335 785l89 165h161l-121 -165h-129zM405 -12q-98 0 -180 43t-133.5 130.5t-51.5 203.5t51.5 203.5t133.5 130.5t180 43t180 -43t133.5 -130.5t51.5 -203.5t-51.5 -203.5t-133.5 -130.5t-180 -43zM405 118q94 0 157 65.5t63 181.5t-63 181.5t-157 65.5t-157 -65.5 t-63 -181.5t63 -181.5t157 -65.5z" />
<glyph unicode="&#xd4;" horiz-adv-x="800" d="M175 785l153 165h137l153 -165h-138l-81 78l-82 -78h-142zM405 -12q-98 0 -180 43t-133.5 130.5t-51.5 203.5t51.5 203.5t133.5 130.5t180 43t180 -43t133.5 -130.5t51.5 -203.5t-51.5 -203.5t-133.5 -130.5t-180 -43zM405 118q94 0 157 65.5t63 181.5t-63 181.5 t-157 65.5t-157 -65.5t-63 -181.5t63 -181.5t157 -65.5z" />
<glyph unicode="&#xd5;" horiz-adv-x="800" d="M181 787q-3 72 32 117.5t95 45.5q42 0 105.5 -31t76.5 -31q17 0 26 15t8 41h95q3 -74 -27 -117.5t-93 -43.5q-39 0 -102.5 30t-79.5 30q-20 0 -30.5 -15.5t-9.5 -40.5h-96zM405 -12q-98 0 -180 43t-133.5 130.5t-51.5 203.5t51.5 203.5t133.5 130.5t180 43t180 -43 t133.5 -130.5t51.5 -203.5t-51.5 -203.5t-133.5 -130.5t-180 -43zM405 118q94 0 157 65.5t63 181.5t-63 181.5t-157 65.5t-157 -65.5t-63 -181.5t63 -181.5t157 -65.5z" />
<glyph unicode="&#xd6;" horiz-adv-x="800" d="M190 794v147h149v-147h-149zM462 794v147h148v-147h-148zM405 -12q-98 0 -180 43t-133.5 130.5t-51.5 203.5t51.5 203.5t133.5 130.5t180 43t180 -43t133.5 -130.5t51.5 -203.5t-51.5 -203.5t-133.5 -130.5t-180 -43zM405 118q94 0 157 65.5t63 181.5t-63 181.5 t-157 65.5t-157 -65.5t-63 -181.5t63 -181.5t157 -65.5z" />
<glyph unicode="&#xd7;" horiz-adv-x="525" d="M475 207l-80 -79l-132 133l-133 -133l-80 79l133 133l-133 133l80 79l133 -132l132 132l80 -79l-133 -133z" />
<glyph unicode="&#xd8;" horiz-adv-x="800" d="M770 364q0 -116 -51.5 -203.5t-133.5 -130.5t-180 -43q-125 0 -220 69l-62 -66l-78 75l64 68q-69 96 -69 231q0 116 51.5 203.5t133.5 130.5t180 43q120 0 213 -64l59 62l79 -73l-60 -64q74 -98 74 -238zM185 364q0 -70 25 -123l315 336q-54 34 -120 34q-94 0 -157 -65.5 t-63 -181.5zM625 364q0 77 -29 132l-318 -340q54 -39 127 -39q94 0 157 65.5t63 181.5z" />
<glyph unicode="&#xd9;" horiz-adv-x="740" d="M367 950l89 -165h-129l-121 165h161zM370 -12q-139 0 -224.5 88.5t-85.5 224.5v421h140v-405q0 -97 45.5 -148t124.5 -51t124.5 51t45.5 148v405h140v-421q0 -136 -85.5 -224.5t-224.5 -88.5z" />
<glyph unicode="&#xda;" horiz-adv-x="740" d="M303 785l89 165h161l-121 -165h-129zM370 -12q-139 0 -224.5 88.5t-85.5 224.5v421h140v-405q0 -97 45.5 -148t124.5 -51t124.5 51t45.5 148v405h140v-421q0 -136 -85.5 -224.5t-224.5 -88.5z" />
<glyph unicode="&#xdb;" horiz-adv-x="740" d="M145 785l153 165h137l153 -165h-138l-81 78l-82 -78h-142zM370 -12q-139 0 -224.5 88.5t-85.5 224.5v421h140v-405q0 -97 45.5 -148t124.5 -51t124.5 51t45.5 148v405h140v-421q0 -136 -85.5 -224.5t-224.5 -88.5z" />
<glyph unicode="&#xdc;" horiz-adv-x="740" d="M160 794v147h149v-147h-149zM432 794v147h148v-147h-148zM370 -12q-139 0 -224.5 88.5t-85.5 224.5v421h140v-405q0 -97 45.5 -148t124.5 -51t124.5 51t45.5 148v405h140v-421q0 -136 -85.5 -224.5t-224.5 -88.5z" />
<glyph unicode="&#xdd;" horiz-adv-x="729" d="M304 785l89 165h161l-121 -165h-129zM299 0v239l-289 483h150l204 -351l205 351h150l-289 -483v-239h-131z" />
<glyph unicode="&#xde;" horiz-adv-x="696" d="M396 126h-186v-126h-140v722h140v-126h186q122 0 193.5 -63t71.5 -172q0 -110 -70.5 -172.5t-194.5 -62.5zM389 466h-179v-210h168q143 0 143 106q0 104 -132 104z" />
<glyph unicode="&#xdf;" horiz-adv-x="657" d="M431 -12q-86 0 -139 38.5t-61 103.5l114 52q3 -40 27 -64.5t62 -24.5q26 0 44 14t18 35q0 24 -23 41t-56 29.5t-66.5 27.5t-56.5 44t-23 70q0 33 16.5 59.5t39.5 43t46 31.5t39.5 33t16.5 39q0 29 -29 48t-74 19q-60 0 -97 -36.5t-37 -96.5v-494h-130v519q0 97 74 160 t190 63q104 0 171 -50t67 -130q0 -37 -16.5 -67t-39.5 -48t-46 -32.5t-39.5 -28.5t-16.5 -28t23 -25.5t55 -24.5t64.5 -30.5t55.5 -51t23 -78.5q0 -69 -56 -114.5t-140 -45.5z" />
<glyph unicode="&#xe0;" horiz-adv-x="604" d="M307 774l83 -155h-107l-117 155h141zM420 0q-6 24 -9 78q-71 -90 -186 -90q-87 0 -141 46t-54 122q0 158 239 195l142 22v11q0 42 -29 64t-83 22q-118 0 -143 -104l-106 76q68 143 254 143q111 0 171.5 -51t60.5 -145v-265q0 -70 13 -124h-129zM247 97q63 0 113.5 41 t50.5 93v36l-102 -16q-81 -13 -115 -32.5t-34 -54.5q0 -30 23 -48.5t64 -18.5z" />
<glyph unicode="&#xe1;" horiz-adv-x="604" d="M242 619l83 155h141l-117 -155h-107zM420 0q-6 24 -9 78q-71 -90 -186 -90q-87 0 -141 46t-54 122q0 158 239 195l142 22v11q0 42 -29 64t-83 22q-118 0 -143 -104l-106 76q68 143 254 143q111 0 171.5 -51t60.5 -145v-265q0 -70 13 -124h-129zM247 97q63 0 113.5 41 t50.5 93v36l-102 -16q-81 -13 -115 -32.5t-34 -54.5q0 -30 23 -48.5t64 -18.5z" />
<glyph unicode="&#xe2;" horiz-adv-x="604" d="M220 619h-125l149 155h107l149 -155h-122l-79 70zM420 0q-6 24 -9 78q-71 -90 -186 -90q-87 0 -141 46t-54 122q0 158 239 195l142 22v11q0 42 -29 64t-83 22q-118 0 -143 -104l-106 76q68 143 254 143q111 0 171.5 -51t60.5 -145v-265q0 -70 13 -124h-129zM247 97 q63 0 113.5 41t50.5 93v36l-102 -16q-81 -13 -115 -32.5t-34 -54.5q0 -30 23 -48.5t64 -18.5z" />
<glyph unicode="&#xe3;" horiz-adv-x="604" d="M117 627q-4 57 26 94t78 37q30 0 84.5 -21.5t68.5 -21.5t22.5 10.5t7.5 28.5h75q4 -57 -26 -94t-78 -37q-30 0 -84.5 21.5t-68.5 21.5t-22.5 -10.5t-7.5 -28.5h-75zM420 0q-6 24 -9 78q-71 -90 -186 -90q-87 0 -141 46t-54 122q0 158 239 195l142 22v11q0 42 -29 64 t-83 22q-118 0 -143 -104l-106 76q68 143 254 143q111 0 171.5 -51t60.5 -145v-265q0 -70 13 -124h-129zM247 97q63 0 113.5 41t50.5 93v36l-102 -16q-81 -13 -115 -32.5t-34 -54.5q0 -30 23 -48.5t64 -18.5z" />
<glyph unicode="&#xe4;" horiz-adv-x="604" d="M367 640v124h131v-124h-131zM119 640v124h131v-124h-131zM420 0q-6 24 -9 78q-71 -90 -186 -90q-87 0 -141 46t-54 122q0 158 239 195l142 22v11q0 42 -29 64t-83 22q-118 0 -143 -104l-106 76q68 143 254 143q111 0 171.5 -51t60.5 -145v-265q0 -70 13 -124h-129z M247 97q63 0 113.5 41t50.5 93v36l-102 -16q-81 -13 -115 -32.5t-34 -54.5q0 -30 23 -48.5t64 -18.5z" />
<glyph unicode="&#xe5;" horiz-adv-x="604" d="M298 610q-48 0 -79 30.5t-31 75.5t31 75.5t79 30.5t79 -30.5t31 -75.5t-31 -75.5t-79 -30.5zM298 676q17 0 28 11t11 29t-11 29t-28 11t-28 -11t-11 -29t11 -29t28 -11zM420 0q-6 24 -9 78q-71 -90 -186 -90q-87 0 -141 46t-54 122q0 158 239 195l142 22v11q0 42 -29 64 t-83 22q-118 0 -143 -104l-106 76q68 143 254 143q111 0 171.5 -51t60.5 -145v-265q0 -70 13 -124h-129zM247 97q63 0 113.5 41t50.5 93v36l-102 -16q-81 -13 -115 -32.5t-34 -54.5q0 -30 23 -48.5t64 -18.5z" />
<glyph unicode="&#xe6;" horiz-adv-x="1001" d="M955 156q-32 -81 -98 -124.5t-156 -43.5q-154 0 -234 112q-82 -112 -223 -112q-97 0 -155.5 48t-58.5 127q0 76 57.5 128t174.5 60l149 9v16q0 94 -112 94q-118 0 -143 -104l-106 76q31 67 96.5 105t154.5 38q134 0 194 -80q78 80 207 80q132 0 205 -88t63 -239h-422 q-1 -66 42 -110.5t113 -44.5q109 0 137 104zM554 360h283q-6 48 -42 79t-94 31t-97.5 -30.5t-49.5 -79.5zM247 97q65 0 114.5 43.5t49.5 106.5v11l-116 -8q-135 -9 -135 -86q0 -30 23 -48.5t64 -18.5z" />
<glyph unicode="&#xe7;" horiz-adv-x="605" d="M437 -131q0 -46 -33.5 -74.5t-89.5 -28.5q-75 0 -126 56l45 54q34 -42 77 -42q42 0 42 33q0 30 -40 30q-17 0 -33 -8l-36 48l31 54q-110 14 -177 94t-67 202q0 133 79.5 215.5t205.5 82.5q95 0 162.5 -47.5t97.5 -133.5l-121 -50q-25 116 -136 116q-71 0 -113 -50 t-42 -133q0 -84 42.5 -134t113.5 -50q110 0 135 116l120 -50q-56 -157 -212 -178l-23 -39q45 -1 71.5 -23.5t26.5 -59.5z" />
<glyph unicode="&#xe8;" horiz-adv-x="619" d="M310 774l83 -155h-107l-117 155h141zM319 -12q-129 0 -209 82t-80 216q0 135 80.5 217t209.5 82q132 0 205 -88t63 -239h-422q-1 -66 42 -110.5t113 -44.5q109 0 137 104l115 -51q-32 -81 -98 -124.5t-156 -43.5zM172 360h283q-6 48 -42 79t-94 31t-97.5 -30.5 t-49.5 -79.5z" />
<glyph unicode="&#xe9;" horiz-adv-x="619" d="M256 619l83 155h141l-117 -155h-107zM319 -12q-129 0 -209 82t-80 216q0 135 80.5 217t209.5 82q132 0 205 -88t63 -239h-422q-1 -66 42 -110.5t113 -44.5q109 0 137 104l115 -51q-32 -81 -98 -124.5t-156 -43.5zM172 360h283q-6 48 -42 79t-94 31t-97.5 -30.5 t-49.5 -79.5z" />
<glyph unicode="&#xea;" horiz-adv-x="619" d="M231 619h-125l149 155h107l149 -155h-122l-79 70zM319 -12q-129 0 -209 82t-80 216q0 135 80.5 217t209.5 82q132 0 205 -88t63 -239h-422q-1 -66 42 -110.5t113 -44.5q109 0 137 104l115 -51q-32 -81 -98 -124.5t-156 -43.5zM172 360h283q-6 48 -42 79t-94 31 t-97.5 -30.5t-49.5 -79.5z" />
<glyph unicode="&#xeb;" horiz-adv-x="619" d="M378 640v124h131v-124h-131zM130 640v124h131v-124h-131zM319 -12q-129 0 -209 82t-80 216q0 135 80.5 217t209.5 82q132 0 205 -88t63 -239h-422q-1 -66 42 -110.5t113 -44.5q109 0 137 104l115 -51q-32 -81 -98 -124.5t-156 -43.5zM172 360h283q-6 48 -42 79t-94 31 t-97.5 -30.5t-49.5 -79.5z" />
<glyph unicode="&#xec;" horiz-adv-x="250" d="M107 774l83 -155h-107l-117 155h141zM60 0v573h130v-573h-130z" />
<glyph unicode="&#xed;" horiz-adv-x="250" d="M67 619l83 155h141l-117 -155h-107zM60 0v573h130v-573h-130z" />
<glyph unicode="&#xee;" horiz-adv-x="250" d="M47 619h-125l149 155h107l149 -155h-122l-79 70zM60 0v573h130v-573h-130z" />
<glyph unicode="&#xef;" horiz-adv-x="250" d="M194 640v124h131v-124h-131zM-54 640v124h131v-124h-131zM60 0v573h130v-573h-130z" />
<glyph unicode="&#xf0;" horiz-adv-x="600" />
<glyph unicode="&#xf1;" d="M142 627q-4 57 26 94t78 37q30 0 84.5 -21.5t68.5 -21.5t22.5 10.5t7.5 28.5h75q4 -57 -26 -94t-78 -37q-30 0 -84.5 21.5t-68.5 21.5t-22.5 -10.5t-7.5 -28.5h-75zM190 251v-251h-130v573h130v-84q73 96 200 96q97 0 152.5 -60.5t55.5 -163.5v-361h-130v336 q0 64 -31.5 98.5t-85.5 34.5q-73 0 -117 -60t-44 -158z" />
<glyph unicode="&#xf2;" horiz-adv-x="632" d="M309 774l83 -155h-107l-117 155h141zM316 -12q-128 0 -207 82t-79 216t79 216.5t207 82.5t207 -82.5t79 -216.5t-79 -216t-207 -82zM316 103q68 0 110.5 50.5t42.5 132.5t-42.5 133t-110.5 51t-110.5 -51t-42.5 -133t42.5 -132.5t110.5 -50.5z" />
<glyph unicode="&#xf3;" horiz-adv-x="632" d="M264 619l83 155h141l-117 -155h-107zM316 -12q-128 0 -207 82t-79 216t79 216.5t207 82.5t207 -82.5t79 -216.5t-79 -216t-207 -82zM316 103q68 0 110.5 50.5t42.5 132.5t-42.5 133t-110.5 51t-110.5 -51t-42.5 -133t42.5 -132.5t110.5 -50.5z" />
<glyph unicode="&#xf4;" horiz-adv-x="632" d="M238 619h-125l149 155h107l149 -155h-122l-79 70zM316 -12q-128 0 -207 82t-79 216t79 216.5t207 82.5t207 -82.5t79 -216.5t-79 -216t-207 -82zM316 103q68 0 110.5 50.5t42.5 132.5t-42.5 133t-110.5 51t-110.5 -51t-42.5 -133t42.5 -132.5t110.5 -50.5z" />
<glyph unicode="&#xf5;" horiz-adv-x="632" d="M135 627q-4 57 26 94t78 37q30 0 84.5 -21.5t68.5 -21.5t22.5 10.5t7.5 28.5h75q4 -57 -26 -94t-78 -37q-30 0 -84.5 21.5t-68.5 21.5t-22.5 -10.5t-7.5 -28.5h-75zM316 -12q-128 0 -207 82t-79 216t79 216.5t207 82.5t207 -82.5t79 -216.5t-79 -216t-207 -82zM316 103 q68 0 110.5 50.5t42.5 132.5t-42.5 133t-110.5 51t-110.5 -51t-42.5 -133t42.5 -132.5t110.5 -50.5z" />
<glyph unicode="&#xf6;" horiz-adv-x="632" d="M385 640v124h131v-124h-131zM137 640v124h131v-124h-131zM316 -12q-128 0 -207 82t-79 216t79 216.5t207 82.5t207 -82.5t79 -216.5t-79 -216t-207 -82zM316 103q68 0 110.5 50.5t42.5 132.5t-42.5 133t-110.5 51t-110.5 -51t-42.5 -133t42.5 -132.5t110.5 -50.5z" />
<glyph unicode="&#xf7;" horiz-adv-x="566" d="M209 452v145h149v-145h-149zM50 286v114h466v-114h-466zM209 89v145h149v-145h-149z" />
<glyph unicode="&#xf8;" horiz-adv-x="632" d="M608 286q0 -134 -79 -216t-207 -82q-100 0 -171 51l-40 -43l-64 63l41 44q-52 77 -52 183q0 134 79 216.5t207 82.5q100 0 171 -51l40 43l65 -60l-43 -46q53 -76 53 -185zM169 286q0 -45 14 -82l224 239q-38 27 -85 27q-68 0 -110.5 -51t-42.5 -133zM475 286q0 47 -14 84 l-224 -240q37 -27 85 -27q68 0 110.5 50.5t42.5 132.5z" />
<glyph unicode="&#xf9;" d="M333 774l83 -155h-107l-117 155h141zM463 0v88q-76 -100 -200 -100q-94 0 -151 58.5t-57 147.5v379h130v-339q0 -63 30 -96.5t86 -33.5q76 0 119 60t43 158v251h130v-573h-130z" />
<glyph unicode="&#xfa;" d="M261 619l83 155h141l-117 -155h-107zM463 0v88q-76 -100 -200 -100q-94 0 -151 58.5t-57 147.5v379h130v-339q0 -63 30 -96.5t86 -33.5q76 0 119 60t43 158v251h130v-573h-130z" />
<glyph unicode="&#xfb;" d="M246 619h-125l149 155h107l149 -155h-122l-79 70zM463 0v88q-76 -100 -200 -100q-94 0 -151 58.5t-57 147.5v379h130v-339q0 -63 30 -96.5t86 -33.5q76 0 119 60t43 158v251h130v-573h-130z" />
<glyph unicode="&#xfc;" d="M393 640v124h131v-124h-131zM145 640v124h131v-124h-131zM463 0v88q-76 -100 -200 -100q-94 0 -151 58.5t-57 147.5v379h130v-339q0 -63 30 -96.5t86 -33.5q76 0 119 60t43 158v251h130v-573h-130z" />
<glyph unicode="&#xfd;" horiz-adv-x="628" d="M259 619l83 155h141l-117 -155h-107zM360 -92q-33 -84 -76 -122t-111 -38q-90 0 -144 60l66 98q32 -43 76 -43t61 46l34 91l-261 573h148l174 -410l154 410h142z" />
<glyph unicode="&#xfe;" horiz-adv-x="665" d="M368 -12q-56 0 -104.5 23.5t-77.5 67.5v-311h-130v954h130v-237q68 100 194 100q102 0 173.5 -76t71.5 -217q0 -145 -76 -224.5t-181 -79.5zM339 103q68 0 110.5 51t42.5 133q0 81 -42 132t-110 51t-111 -51t-43 -133t42.5 -132.5t110.5 -50.5z" />
<glyph unicode="&#xff;" horiz-adv-x="628" d="M383 640v124h131v-124h-131zM135 640v124h131v-124h-131zM360 -92q-33 -84 -76 -122t-111 -38q-90 0 -144 60l66 98q32 -43 76 -43t61 46l34 91l-261 573h148l174 -410l154 410h142z" />
<glyph unicode="&#x10c;" horiz-adv-x="757" d="M621 950l-161 -165h-123l-161 165h145l78 -74l77 74h145zM722 199q-37 -98 -125 -154.5t-201 -56.5q-158 0 -259.5 106t-101.5 270q0 165 103 271.5t263 106.5q113 0 198.5 -56.5t122.5 -154.5l-126 -71q-16 72 -68 112t-128 40q-100 0 -160 -67t-60 -180 q0 -112 60 -179.5t161 -67.5q76 0 127 40t68 112z" />
<glyph unicode="&#x10d;" horiz-adv-x="605" d="M517 774l-158 -155h-94l-158 155h129l76 -68l76 68h129zM317 -12q-127 0 -207 82.5t-80 216.5q0 133 79.5 215.5t205.5 82.5q95 0 162.5 -47.5t97.5 -133.5l-121 -50q-25 116 -136 116q-71 0 -113 -50t-42 -133q0 -84 42.5 -134t113.5 -50q110 0 135 116l120 -50 q-31 -88 -97 -134.5t-160 -46.5z" />
<glyph unicode="&#x10e;" horiz-adv-x="752" d="M552 950l-161 -165h-123l-161 165h145l78 -74l77 74h145zM70 0v722h285q163 0 262.5 -99t99.5 -262t-99.5 -262t-262.5 -99h-285zM346 592h-136v-462h136q112 0 169 61t57 170t-57 170t-169 61z" />
<glyph unicode="&#x10f;" horiz-adv-x="805" d="M669 482v245h136l-31 -245h-105zM469 0v77q-64 -89 -182 -89q-113 0 -185 83t-72 215q0 139 73.5 219t175.5 80q120 0 190 -102v239h130v-722h-130zM316 103q68 0 110.5 50.5t42.5 132.5t-43 133t-111 51t-110 -51t-42 -132q0 -82 42.5 -133t110.5 -51z" />
<glyph unicode="&#x11a;" horiz-adv-x="629" d="M564 950l-161 -165h-123l-161 165h145l78 -74l77 74h145zM70 0v722h539v-130h-399v-166h355v-130h-355v-166h399v-130h-539z" />
<glyph unicode="&#x11b;" horiz-adv-x="619" d="M514 774l-158 -155h-94l-158 155h129l76 -68l76 68h129zM319 -12q-129 0 -209 82t-80 216q0 135 80.5 217t209.5 82q132 0 205 -88t63 -239h-422q-1 -66 42 -110.5t113 -44.5q109 0 137 104l115 -51q-32 -81 -98 -124.5t-156 -43.5zM172 360h283q-6 48 -42 79t-94 31 t-97.5 -30.5t-49.5 -79.5z" />
<glyph unicode="&#x147;" horiz-adv-x="777" d="M618 950l-161 -165h-123l-161 165h145l78 -74l77 74h145zM707 722v-722h-157l-340 512v-512h-140v722h155l342 -512v512h140z" />
<glyph unicode="&#x148;" d="M528 774l-158 -155h-94l-158 155h129l76 -68l76 68h129zM190 251v-251h-130v573h130v-84q73 96 200 96q97 0 152.5 -60.5t55.5 -163.5v-361h-130v336q0 64 -31.5 98.5t-85.5 34.5q-73 0 -117 -60t-44 -158z" />
<glyph unicode="&#x152;" horiz-adv-x="1184" d="M1164 130v-130h-539v61q-96 -73 -225 -73q-98 0 -180 43t-133.5 130.5t-51.5 203.5t51.5 203.5t133.5 130.5t180 43q129 0 225 -73v53h539v-130h-399v-166h355v-130h-355v-166h399zM400 118q94 0 157 65.5t63 181.5t-63 181.5t-157 65.5t-157 -65.5t-63 -181.5t63 -181.5 t157 -65.5z" />
<glyph unicode="&#x153;" horiz-adv-x="1058" d="M1012 156q-32 -81 -98 -124.5t-156 -43.5q-142 0 -222 97q-80 -97 -220 -97q-128 0 -207 82t-79 216t79 216.5t207 82.5q140 0 220 -97q80 97 223 97q132 0 205 -88t63 -239h-422q-1 -66 42 -110.5t113 -44.5q109 0 137 104zM611 360h283q-6 48 -42 79t-94 31 t-97.5 -30.5t-49.5 -79.5zM316 103q68 0 110.5 50.5t42.5 132.5t-42.5 133t-110.5 51t-110.5 -51t-42.5 -133t42.5 -132.5t110.5 -50.5z" />
<glyph unicode="&#x158;" horiz-adv-x="737" d="M552 950l-161 -165h-123l-161 165h145l78 -74l77 74h145zM70 0v722h321q121 0 191.5 -54.5t70.5 -149.5q0 -133 -131 -183q56 -19 84 -77q13 -28 41 -115t55 -143h-152q-18 42 -37 112.5t-40 109.5q-16 31 -44 42.5t-82 11.5h-137v-276h-140zM387 592h-177v-186h177 q126 0 126 94q0 92 -126 92z" />
<glyph unicode="&#x159;" horiz-adv-x="473" d="M457 774l-158 -155h-94l-158 155h129l76 -68l76 68h129zM190 226v-226h-130v573h130v-87q62 99 159 99q37 0 70.5 -15.5t48.5 -38.5l-58 -110q-26 40 -79 40q-62 0 -101.5 -58t-39.5 -177z" />
<glyph unicode="&#x160;" horiz-adv-x="666" d="M556 950l-161 -165h-123l-161 165h145l78 -74l77 74h145zM339 -13q-130 0 -217 56.5t-102 150.5l136 61q1 -63 55 -102.5t135 -39.5q63 0 103.5 25t40.5 66q0 30 -25 51.5t-65 34.5t-88.5 25t-97 28t-88.5 38.5t-65 61t-25 90.5q0 96 77.5 153t204.5 57 q110 0 189.5 -43.5t108.5 -116.5l-129 -66q-10 46 -55 73.5t-115 27.5q-60 0 -97.5 -20.5t-37.5 -52.5q0 -29 34 -49.5t85 -31.5t110.5 -29.5t110.5 -41t85 -68.5t34 -109q0 -104 -82.5 -166.5t-219.5 -62.5z" />
<glyph unicode="&#x161;" horiz-adv-x="590" d="M498 774l-158 -155h-94l-158 155h129l76 -68l76 68h129zM303 -12q-106 0 -176 44t-87 119l118 54q6 -47 48.5 -77.5t99.5 -30.5q44 0 73.5 18t29.5 45q0 26 -35.5 44t-86.5 31t-101.5 31t-86 55t-35.5 91q0 79 62.5 124.5t162.5 45.5q94 0 161 -40t85 -102l-124 -54 q-3 36 -38 61.5t-87 25.5q-39 0 -65.5 -15t-26.5 -38q0 -25 35.5 -42t86.5 -30t102 -31t86.5 -56.5t35.5 -95.5q0 -79 -64.5 -128t-172.5 -49z" />
<glyph unicode="&#x164;" horiz-adv-x="669" d="M554 950l-161 -165h-123l-161 165h145l78 -74l77 74h145zM15 592v130h639v-130h-249v-592h-140v592h-250z" />
<glyph unicode="&#x165;" horiz-adv-x="395" d="M299 635v214h130l-28 -214h-102zM365 23q-33 -35 -105 -35q-75 0 -116 46t-41 128v312h-88v99h88v69l130 100v-169h108v-99h-108v-305q0 -67 47 -67q36 0 59 28z" />
<glyph unicode="&#x16e;" horiz-adv-x="740" d="M370 763q-53 0 -88.5 34t-35.5 87t35.5 87t88.5 34t88.5 -34t35.5 -87t-35.5 -87t-88.5 -34zM370 834q22 0 34.5 14t12.5 36t-12.5 36t-34.5 14t-34.5 -14t-12.5 -36t12.5 -36t34.5 -14zM370 -12q-139 0 -224.5 88.5t-85.5 224.5v421h140v-405q0 -97 45.5 -148t124.5 -51 t124.5 51t45.5 148v405h140v-421q0 -136 -85.5 -224.5t-224.5 -88.5z" />
<glyph unicode="&#x16f;" d="M324 610q-48 0 -79 30.5t-31 75.5t31 75.5t79 30.5t79 -30.5t31 -75.5t-31 -75.5t-79 -30.5zM324 676q17 0 28 11t11 29t-11 29t-28 11t-28 -11t-11 -29t11 -29t28 -11zM463 0v88q-76 -100 -200 -100q-94 0 -151 58.5t-57 147.5v379h130v-339q0 -63 30 -96.5t86 -33.5 q76 0 119 60t43 158v251h130v-573h-130z" />
<glyph unicode="&#x178;" horiz-adv-x="729" d="M155 794v147h149v-147h-149zM427 794v147h148v-147h-148zM299 0v239l-289 483h150l204 -351l205 351h150l-289 -483v-239h-131z" />
<glyph unicode="&#x17d;" horiz-adv-x="669" d="M567 950l-161 -165h-123l-161 165h145l78 -74l77 74h145zM60 592v130h571v-111l-410 -481h426v-130h-612v111l412 481h-387z" />
<glyph unicode="&#x17e;" horiz-adv-x="581" d="M502 774l-158 -155h-94l-158 155h129l76 -68l76 68h129zM51 458v115h484v-99l-328 -359h344v-115h-521v99l328 359h-307z" />
<glyph unicode="&#x2c6;" horiz-adv-x="505" d="M175 619h-125l149 155h107l149 -155h-122l-79 70z" />
<glyph unicode="&#x2da;" horiz-adv-x="320" d="M160 610q-48 0 -79 30.5t-31 75.5t31 75.5t79 30.5t79 -30.5t31 -75.5t-31 -75.5t-79 -30.5zM160 676q17 0 28 11t11 29t-11 29t-28 11t-28 -11t-11 -29t11 -29t28 -11z" />
<glyph unicode="&#x2dc;" horiz-adv-x="464" d="M51 627q-4 57 26 94t78 37q30 0 84.5 -21.5t68.5 -21.5t22.5 10.5t7.5 28.5h75q4 -57 -26 -94t-78 -37q-30 0 -84.5 21.5t-68.5 21.5t-22.5 -10.5t-7.5 -28.5h-75z" />
<glyph unicode="&#x2000;" horiz-adv-x="502" />
<glyph unicode="&#x2001;" horiz-adv-x="1005" />
<glyph unicode="&#x2002;" horiz-adv-x="502" />
<glyph unicode="&#x2003;" horiz-adv-x="1005" />
<glyph unicode="&#x2004;" horiz-adv-x="335" />
<glyph unicode="&#x2005;" horiz-adv-x="251" />
<glyph unicode="&#x2006;" horiz-adv-x="167" />
<glyph unicode="&#x2007;" horiz-adv-x="167" />
<glyph unicode="&#x2008;" horiz-adv-x="125" />
<glyph unicode="&#x2009;" horiz-adv-x="201" />
<glyph unicode="&#x200a;" horiz-adv-x="55" />
<glyph unicode="&#x2010;" horiz-adv-x="448" d="M50 229v116h348v-115z" />
<glyph unicode="&#x2011;" horiz-adv-x="448" d="M50 229v116h348v-115z" />
<glyph unicode="&#x2012;" horiz-adv-x="448" d="M50 229v116h348v-115z" />
<glyph unicode="&#x2013;" horiz-adv-x="600" d="M50 229v115h500v-115h-500z" />
<glyph unicode="&#x2014;" horiz-adv-x="1100" d="M50 229v115h1000v-115h-1000z" />
<glyph unicode="&#x2018;" horiz-adv-x="236" d="M226 722l-72 -255h-144l93 255h123z" />
<glyph unicode="&#x2019;" horiz-adv-x="236" d="M10 467l72 255h144l-93 -255h-123z" />
<glyph unicode="&#x201a;" horiz-adv-x="236" d="M10 -130l72 255h144l-93 -255h-123z" />
<glyph unicode="&#x201c;" horiz-adv-x="458" d="M448 722l-72 -255h-144l93 255h123zM226 722l-72 -255h-144l93 255h123z" />
<glyph unicode="&#x201d;" horiz-adv-x="458" d="M10 467l72 255h144l-93 -255h-123zM232 467l72 255h144l-93 -255h-123z" />
<glyph unicode="&#x201e;" horiz-adv-x="458" d="M10 -131l72 255h144l-93 -255h-123zM232 -131l72 255h144l-93 -255h-123z" />
<glyph unicode="&#x2022;" horiz-adv-x="442" d="M221 189q-73 0 -122 49t-49 123t49 123t122 49t122 -49t49 -123t-49 -123t-122 -49z" />
<glyph unicode="&#x2026;" horiz-adv-x="840" d="M50 0v156h160v-156h-160zM340 0v156h160v-156h-160zM630 0v156h160v-156h-160z" />
<glyph unicode="&#x202f;" horiz-adv-x="201" />
<glyph unicode="&#x2039;" horiz-adv-x="392" d="M203 94l-153 191l153 191h139l-159 -191l159 -191h-139z" />
<glyph unicode="&#x203a;" horiz-adv-x="392" d="M342 285l-153 -191h-139l159 191l-159 191h139z" />
<glyph unicode="&#x205f;" horiz-adv-x="251" />
<glyph unicode="&#x20ac;" horiz-adv-x="733" d="M683 31q-78 -43 -177 -43q-122 0 -213.5 65.5t-127.5 177.5h-115v93h97q-2 26 -2 40q0 17 1 25h-96v98h112q35 116 128.5 185.5t219.5 69.5q92 0 170 -39l-59 -107q-47 29 -111 29q-74 0 -128.5 -36t-81.5 -102h263l-51 -98h-233q-1 -8 -1 -24q0 -15 2 -41h198l-48 -93 h-124q29 -60 82 -92.5t123 -32.5q73 0 125 36z" />
<glyph unicode="&#x2122;" horiz-adv-x="914" d="M771 360v243l-88 -243h-68l-87 240v-240h-93v362h129l85 -249l85 249h130v-362h-93zM50 634v88h334v-88h-120v-274h-93v274h-121z" />
<glyph unicode="&#x25fc;" horiz-adv-x="575" d="M0 575h575v-575h-575v575z" />
</font>
</defs>
</svg>
